<svg xmlns="http://www.w3.org/2000/svg" width="355" height="292" viewBox="0 0 355 292">
    <g transform="translate(-10 -140)">
        <circle cx="29.5" cy="29.5" r="29.5" transform="translate(264 140)" fill="#e2f5ed"
            opacity="0.3" />
        <circle cx="94" cy="94" r="94" transform="translate(177 244)" fill="#e2f5ed" />
        <path
            d="M71.943,2.25C34.827,2.25,4.736,32.106,4.736,68.939a66,66,0,0,0,9.644,34.436L2.25,139.153l37.209-11.821a67.345,67.345,0,0,0,32.483,8.3c37.12,0,67.21-29.86,67.21-66.689S109.063,2.25,71.943,2.25Zm33.42,92.015c-1.581,3.92-8.732,7.5-11.887,7.662S90.233,104.37,73.05,96.9,45.531,71.283,44.716,70.114s-6.656-9.488-6.341-17.863a19.043,19.043,0,0,1,6.541-13.973,6.582,6.582,0,0,1,4.655-1.96c1.353-.022,2.23-.04,3.231,0s2.5-.209,3.8,3.251S61.02,51.531,61.418,52.4a3.114,3.114,0,0,1,.031,2.986,11.672,11.672,0,0,1-1.822,2.776c-.9.962-1.887,2.152-2.687,2.887-.892.814-1.824,1.7-.886,3.444a51.429,51.429,0,0,0,9.1,12.143,46.891,46.891,0,0,0,13.476,8.959c1.685.918,2.691.816,3.736-.284s4.473-4.812,5.683-6.469,2.341-1.336,3.894-.712,9.827,5.059,11.512,5.975,2.809,1.384,3.212,2.109S106.943,90.345,105.362,94.265Z"
            transform="translate(195.347 270.937)" fill="#259164" opacity="0.05" />
        <circle cx="13" cy="13" r="13" transform="translate(333 208)" fill="#ff616e" opacity="0.1" />
        <circle cx="114.5" cy="114.5" r="114.5" transform="translate(10 143)" fill="#ff616e"
            opacity="0.1" />
        <path
            d="M105.272,3H14.364A11.348,11.348,0,0,0,3.057,14.364L3,116.635,25.727,93.908h79.545a11.4,11.4,0,0,0,11.364-11.364V14.364A11.4,11.4,0,0,0,105.272,3ZM93.908,71.181H25.727V59.818H93.908Zm0-17.045H25.727V42.772H93.908Zm0-17.045H25.727V25.727H93.908Z"
            transform="translate(59.968 201.365)" fill="#ff616e" opacity="0.05" />
    </g>
</svg>
  