<svg xmlns="http://www.w3.org/2000/svg" width="118" height="341.011" viewBox="0 0 118 341.011">
    <g transform="translate(-111.928 -143.663)">
        <g transform="translate(111.928 157.652)">
            <path fill="#ffc48e" d="M137.45,368.148l1.417,14.531,7.961-.949,2.91-13.906Z"
                transform="translate(-101.922 -69.789)" />
            <path fill="#60a1b0"
                d="M149.739,367.824l-12.289.323,1.417,14.531,2.706-5.074,4.4-1.015Z"
                transform="translate(-101.922 -69.789)" />
            <path fill="#ffc48e" d="M159.934,366.431l-.647,15.846,9.378.647,3.881-15.846Z"
                transform="translate(-93.361 -70.335)" />
            <path fill="#60a1b0" d="M159.288,382.276l.647-15.846,12.612.647L169.2,378.151h-6.427Z"
                transform="translate(-93.361 -70.335)" />
            <path fill="#bae6e6"
                d="M137.6,183.379c.785-1.346.688-1.572.688-1.572s2.734-1.906,4.191-1.008l-.9,4.879s-2.076,1.963-2.861,1.57S137.6,183.379,137.6,183.379Z"
                transform="translate(-101.863 -143.205)" />
            <path fill="#60a1b0"
                d="M181.536,273.089l.29,67.432-3.163,78.919s-15.513-1.217-18.555-2.13L151.482,285.4s9.373-20.892,9.661-20.988c8.213-2.738,18.79-5.756,18.79-5.756Z"
                transform="translate(-96.421 -112.588)" />
            <path fill="#60a1b0"
                d="M160.563,286.862,157.578,419.41l-19.34-.163L134.3,347.7l-5.984-86.084,4.258-6.693,40.083,8.821S162.388,282.3,160.563,286.862Z"
                transform="translate(-105.502 -114.051)" />
            <path fill="#3e4445"
                d="M131.688,254.923l-1.1,8.841s10.964,4.751,17.907,7.31,17.176,7.31,26.312,3.654a141.771,141.771,0,0,0,17.176-8.405l-2.2-5.62L167.5,266.689Z"
                transform="translate(-104.613 -114.051)" />
            <path fill="#bae6e6"
                d="M148,185.262c-3.965.66-8.753-2.312-9.744,3.138s-10.737,94.972-10.737,94.972,3.981,3.614,16.863,9.065,31.531,9.434,44.745,1.011l-3.8-45.918-7.6-54.506Z"
                transform="translate(-105.817 -141.451)" />
            <path fill="none" stroke="#000" stroke-miterlimit="10" stroke-width="0.19px"
                d="M139.615,191.7a21.336,21.336,0,0,0,7.905,5.4,15.63,15.63,0,0,0,11.277-.072,13.053,13.053,0,0,0,7.542-8.226"
                transform="translate(-101.073 -139.971)" />
            <path fill="#ffc48e"
                d="M144.505,176.479s-.31,3.412-3.722,7.755-4.345,5.585-.621,9.307,8.358,6.437,11.707,6.572c7.96.323,13.112-2.848,12.8-6.572s-1.861-13.03-1.861-13.03Z"
                transform="translate(-101.799 -144.805)" />
            <path fill="#3e4445"
                d="M163.982,185.1c-3.133,5.834-7.219,6.718-8.251,6.834-1.817.2-3.42-1.121-4.7-2.428a48.71,48.71,0,0,1-7.479-9.911s3.186,16.816,9.338,16.816S163.982,185.1,163.982,185.1Z"
                transform="translate(-99.529 -143.584)" />
            <path fill="#3e4445"
                d="M148.355,181.456c-.238,3.344,5.017,22.217,6.689,31.772s6.69,24.128,3.585,37.028-17.022,35.8-17.566,36.615-8.44,15.793-18.243,14.976-10.891-4.357-10.891-4.357,12.935-22.344,16.337-35.124c2.021-7.589-6.807-65.347-6.807-65.347l17.426-8.986Z"
                transform="translate(-111.928 -142.854)" />
            <path fill="none" stroke="#000" stroke-miterlimit="10" stroke-width="0.238px"
                d="M123.606,241.5c4.86.242,15.066.486,20.655.242l.92,3.451-18.41,1.438-4.694-1.438Z"
                transform="translate(-107.949 -119.315)" />
            <path fill="none" stroke="#000" stroke-miterlimit="10" d="M131.183,191.135l3.834-6.11"
                transform="translate(-104.379 -141.455)" />
            <path fill="none" stroke="#000" stroke-miterlimit="10"
                d="M131.522,189.752a22.471,22.471,0,0,0,5.07,2.521"
                transform="translate(-104.246 -139.601)" />
            <path fill="none" stroke="#000" stroke-miterlimit="10"
                d="M136.014,192.058a22.315,22.315,0,0,0-4.723,4.265"
                transform="translate(-104.337 -138.697)" />
            <path fill="none" stroke="#000" stroke-miterlimit="10"
                d="M130.943,195.892a240.41,240.41,0,0,1,15.835,40.07"
                transform="translate(-104.473 -137.194)" />
            <path fill="#3e4445"
                d="M120.515,192.636c-1.513,0-4.943,6.924-5.1,15.637-.217,12.381-2.6,43.565.459,48s20.942,6.42,31.947,3.821c0,0-.458-17.426,1.07-19.718a9.863,9.863,0,0,1,3.363-3.21L135.6,239.915S127.293,192.636,120.515,192.636Z"
                transform="translate(-110.986 -138.471)" />
            <path fill="#3e4445"
                d="M138.411,247.552s-.458-17.426,1.07-19.718a9.863,9.863,0,0,1,3.363-3.21,6.742,6.742,0,0,1,1.986,4.127c.459,2.9-.458,10.852-1.986,14.216A9.436,9.436,0,0,1,138.411,247.552Z"
                transform="translate(-104.908 -138.471)" />
        </g>
    </g>
</svg>