<svg xmlns="http://www.w3.org/2000/svg" width="133.353" height="317.278"
    viewBox="0 0 133.353 317.278">
    <defs></defs>
    <ellipse fill="#413847" opacity="0.1" cx="66.5" cy="5.32" rx="66.5" ry="5.32"
        transform="translate(0.352 306.638)" />
    <path fill="#000" stroke="#000" stroke-miterlimit="10" stroke-width="0.183"
        d="M386.195,405.017c0,2.576-2.455,8.428-1.6,10.99s.7,6.212,2.121,7.919,1.98,5.821-1.139,6.834c0,0-8.825-1.994-12.811-17.082s.5-.987-2.345-8.105-.854-9.11-.854-9.11,5.534-6.415,8.746-6.441S386.195,405.017,386.195,405.017Z"
        transform="translate(-368.888 -135.012)" />
    <path fill="#515146" d="M279.162,250.235l7.31-6.237-.437-1.455-6.984-1.019-8.876,6.984Z"
        transform="translate(-153.402 -158.163)" />
    <path fill="#000" stroke="#000" stroke-miterlimit="10" stroke-width="0.183"
        d="M292.036,426.728c-.44,2.464-1.764,3.389-2.24,7.443a4.124,4.124,0,0,0,3.372,4.527c7.309,1.318,13.753,3.742,25.827,3.31,3.194-.114,12.088-2.053,12.088-2.053s.342-3.878-1.824-4.562-8.1-.912-8.439-1.026a92.291,92.291,0,0,1-8.9-4.79c-1.483-1.14.223-2.252-2.514-2.366S292.036,426.728,292.036,426.728Z"
        transform="translate(-220.68 -129.289)" />
    <path fill="#515146"
        d="M383.362,384.577s-16.458,9.1-18.208,10.679-30.119,16.053-30.119,16.053-3.152,1.05-4.9.35l-7.521-16.785s6.478-5.777,7.7-6.3,36.24-27.486,47.619-28.713l4.665-.959s2.863.64,3.039,2.566S383.362,384.577,383.362,384.577Z"
        transform="translate(-313.188 -139.864)" />
    <path fill="none" stroke="#000" stroke-miterlimit="10" stroke-width="0.183"
        d="M380.678,372.056c-11.944,5.7-49.228,29.2-53.77,32.028"
        transform="translate(-313.186 -137.813)" />
    <path fill="#515146"
        d="M331.1,360.891l8.954-1.99s2.863.64,3.039,2.566-2.276,23.11-2.276,23.11-16.458,9.1-18.208,10.679l7.382-14.384Z"
        transform="translate(-270.645 -139.864)" />
    <path fill="#515146"
        d="M348.5,303.682c1.459,3.891,3.63,67.809,2.414,70.97,0,0-4.421,70.23-3.91,71.42s-22.446.681-21.767-.85-2.485-21.336-2.89-25.055c-.655-6-7.661-85.076-8.512-87.457s-8.494-11.283-11.554-26.247l20.746-2.04Z"
        transform="translate(-255.32 -148.473)" />
    <path fill="#000" stroke="#000" stroke-miterlimit="10" stroke-width="0.183"
        d="M303.973,306.463l20.746-2.04,25.474-.741c.393,1.048.4,3.51.817,6.742.124.95-11.564-.287-23.854.57-.259.018-6.381.681-6.624.705l-12.762.209S305.144,313.464,303.973,306.463Z"
        transform="translate(-257.008 -148.473)" />
    <path fill="none" stroke="#000" stroke-miterlimit="10" stroke-width="0.183"
        d="M322.844,307.663c-.139,3.381-1.695,6.519-3.219,9.54-1.563,3.1-2.492,5.688-4.055,8.785"
        transform="translate(-242.246 -147.852)" />
    <path fill="none" stroke="#000" stroke-miterlimit="10" stroke-width="0.183"
        d="M323.229,306.747c.237,2.552-.833,5.024-1.881,7.363l-4.11 9.185"
        transform="translate(-244.592 -147.995)" />
    <path fill="#451831"
        d="M300.651,218.27c1.734-.192,4.431-.385,6.164,1.349s15.41,23.5,17.336,36.984c.683,4.78-1.72,20.739-1.72,20.739s7.046,31.14,6.922,33c-.193,2.89.578,8.669-5.393,10.4s-14.833,0-14.833,0l-14.063-83.023Z"
        transform="translate(-225.054 -161.807)" />
    <path fill="#ffc48e"
        d="M277.844,263.932s6.935.385,10.21-1.348a36.042,36.042,0,0,0,6.919-5.391s1.217-.59,1.7-.84c2.669-1.4,1.537-3,1.537-3s3.721-.73,3.388-2.559a1.827,1.827,0,0,0-.979-1.2s1.431-1.355,1.506-1.882.075-1.355-1.28-1.355a11.182,11.182,0,0,0-3.161.677l-4.818.978s.752-.753-.754-1.2-7.753-.828-8.732-1.129-8.206,5.27-8.206,5.27Z"
        transform="translate(-174.859 -157.518)" />
    <path fill="#000"
        d="M288.2,249.06a1.827,1.827,0,0,1,.979,1.2c.333,1.829-3.388,2.559-3.388,2.559s1.132,1.6-1.537,3c-.482.251-1.7.84-1.7.84a36.042,36.042,0,0,1-6.919,5.391l3.188-4.538s3.209-1.637,2.2-3.336h0l3.714-2.518-7.8.064Z"
        transform="translate(-162.44 -156.988)" />
    <path fill="#ffc48e"
        d="M313.825,221.291l2.664-6.455,2.829-.794s.868-.905,5.113-3.027c.4-.2,1.459-1.994,2.707-4.428l2.342-.744a1.741,1.741,0,0,0,1.218-1.674,45.879,45.879,0,0,1,.246-6.226c.266-2.2,2.462-4.957,2.3-8.429-.052-1.181,1.72-5.069,3.277-6.689s.9-7.148.9-7.148l.938-1.53s.874-4.288-1.265-5.412-8.72-.266-10.226-1.145-.559-3.353-2.051-4.205-1.631-2.3-1.631-2.3-.192-.719-2.563-.719-8.586-.52-12.131,2.728a11.553,11.553,0,0,0-3.087,4.848,7.25,7.25,0,0,1-1.672,2.5c-1.581,1.774-.743,4.173-1.855,4.943s-3.787,1.345-4.054,2.252,1.063,4.979,1.063,4.979-.929,1.872-.929,2.786,1.69,2.461,2.25,3.179,1.075,3.056,1.125,3.4c.085.594-3.094,3.46-3.124,5.43s-.66,4.062-1.937,4.062-1.31,1.537-.843,2.426a8.426,8.426,0,0,0,4.94,3.312s6.064,10.03,7.216,11.5C308.09,223.527,313.825,221.291,313.825,221.291Z"
        transform="translate(-203.414 -174.898)" />
    <path fill="#000"
        d="M342.263,180.437s.808-1.9,3.307-2.509,3.48,1.041,3.88,1.361,1.608-.252,1.608,1.43-1.274,1.979-1.578,2.734-3.3,5.12-3.488,5.617-.958,1.808-.7,2.648,2.9,5.551.709,8.554-4.3,1.653-6.056,1.653-2.4-1.375-3.7-2.175a3.058,3.058,0,0,0-1.2-.366c-1.542-.168-2.859-1.189-3.4-1.4-2.319-.927-1.557-2.643.066-3.482s3.1-.1,3.9-.758,2.286-1.215,2.608-2.673c.4-1.884.316-3.053.7-3.771s1.213-.646,1.213-.646S340.68,182.85,342.263,180.437Z"
        transform="translate(-234.796 -181.246)" />
    <path fill="#000"
        d="M343.7,173.108a1.492,1.492,0,0,1,.272-1.234,3.486,3.486,0,0,0,.53-1.1,4.137,4.137,0,0,1,.07-1.048c.419-1.094,2.3-1.994,4.544-1.494s4.142,1.073,4.733,2.445a2.593,2.593,0,0,1,.236.82c.079.4-.15,1.174-.15,1.174a1.775,1.775,0,0,1,.426.461,1.627,1.627,0,0,1-.084,1.846c-.524.91-1.828.856-2.626,1.175s-1.433,2.352-1.509,3.131-1.35,1.641-2.555.766c-1.344-.947-1.615-2.109-2.94-2.453C344.83,175.05,343.452,173.844,343.7,173.108Z"
        transform="translate(-233.025 -182.251)" />
    <path fill="#000"
        d="M352.094,170.41a4.268,4.268,0,0,1,.645.127,1.526,1.526,0,0,1,.584.367,2.689,2.689,0,0,1,.356.412c.222.319.231.918-.154,1.054-.26.088-.858-.119-1.06-.189a.929.929,0,0,0-.408-.079c-.477.02-.52.519-.9.626a.715.715,0,0,1-.621-.136c-.352-.253-.256-.909-.172-1.275S351.371,170.245,352.094,170.41Z"
        transform="translate(-235.981 -182.809)" />
    <path fill="#000" d="M352.63,171.193a.626.626,0,1,1,.629-.625A.627.627,0,0,1,352.63,171.193Z"
        transform="translate(-236.192 -183.065)" />
    <path fill="#ffc48e"
        d="M314.038,220.578c.787-2.171,1.788-4.844,3.205-4.155s2.2,4.321,2.4,5.437,1.58,1.431,2.63,2.509.6,3.536,0,4.037-3.4,3.022-3.883,4.688-.337,5.059-2.84,5.059-4.709-5.777-4.709-5.777a7.878,7.878,0,0,0,.237-3.554A20.215,20.215,0,0,1,314.038,220.578Z"
        transform="translate(-205.207 -174.585)" />
    <path fill="#000"
        d="M319.937,229.569c-2.5,0-4.709-5.777-4.709-5.777a7.878,7.878,0,0,0,.237-3.554,20.215,20.215,0,0,1-1.427-4.7c.787-2.171,1.788-4.844,3.205-4.155s2.2,4.321,2.4,5.437,1.58,1.431,2.63,2.509.6,3.536,0,4.037S321.283,229.569,319.937,229.569Z"
        transform="translate(-205.21 -174.585)" />
    <path fill="#ffc48e"
        d="M312.379,217.756a3.245,3.245,0,0,0,1.916-1.431c.6-.79,1.5-1.291,1.5-1.291s1.12,2.037,2.6,2.415,1.939,3.338,1.725,3.985-1.707,3.081-2.957,3.115-2.062,1.234-3.017,0-.8-1.607-2.622-2.48a2.736,2.736,0,0,0-1.541-.325A4.384,4.384,0,0,0,312.379,217.756Z"
        transform="translate(-206.394 -176.657)" />
    <path fill="#000"
        d="M317.55,221.756c-.7-.073-1.149-1.038-1.337-1.589-.233-.679-.425-1.394-1.075-1.829a.973.973,0,0,0-.67-.18,4.376,4.376,0,0,0-2.145.785,3.245,3.245,0,0,0,1.916-1.431c.6-.79,1.5-1.291,1.5-1.291s1.12,2.037,2.6,2.415,1.939,3.338,1.725,3.985a6.019,6.019,0,0,1-.523.769A2.545,2.545,0,0,0,317.55,221.756Z"
        transform="translate(-206.392 -176.659)" />
    <path fill="#ffc48e"
        d="M312.379,217.756a3.245,3.245,0,0,0,1.916-1.431,3.236,3.236,0,0,1,2.177-1.609c.432-1.148-.548-1.636-1.151-1.823-.632-.2-2.042-2.47-3.031-1.563-2.88,2.713-6.028,4.54-5.545,6.433S309.53,216.985,312.379,217.756Z"
        transform="translate(-206.394 -176.657)" />
    <path fill="#000"
        d="M315.159,213.973a3.236,3.236,0,0,1,2.177-1.609c.432-1.148-.548-1.636-1.151-1.823-.632-.2-2.042-2.47-3.031-1.563a19.475,19.475,0,0,0-2.154,2.224A2.6,2.6,0,0,0,312.379,217.756,3.245,3.245,0,0,0,315.159,213.973Z"
        transform="translate(-206.392 -176.659)" />
    <path fill="#ffb080"
        d="M309.614,218.286c-2.373,1.549-3.277,4.261-3.277,4.261s.344.665,1.226,1.052a4.511,4.511,0,0,0,2.253.265A5.362,5.362,0,0,0,311.253,218.9C311.253,218.9,310.234,217.845,309.614,218.286Z"
        transform="translate(-204.118 -174.925)" />
    <path fill="#ffb080"
        d="M311.516,223.594a4.511,4.511,0,0,1-2.253-.265c-1.2-.507-1.831-1.282-2.1-1.785,0,.157.875,2.548,1.1,2.914s3.637,5.049,5.253,5.049c1.7,0,2.575-2.606,2.847-3.62C314.01,225.527,313.721,223.508,311.516,223.594Z"
        transform="translate(-204.527 -174.325)" />
</svg>
  