<svg xmlns="http://www.w3.org/2000/svg" width="321" height="305" viewBox="0 0 321 305">
    <g transform="translate(-40 -101)">
        <circle fill="#e2f5ed" opacity="0.3" cx="29.5" cy="29.5" r="29.5"
            transform="translate(40 139)" />
        <circle fill="#ff616e" opacity="0.1" cx="13" cy="13" r="13" transform="translate(271 358)" />
        <circle fill="#ff616e" opacity="0.1" cx="114.5" cy="114.5" r="114.5"
            transform="translate(132 101)" />
        <path fill="#ff616e"
            d="M8.346,4.055,30.691,28.239,14.926,59.314l33.291-5.965L63.373,89.917,127.752,5.5ZM32.491,43.679l10.35-18.271L103.71,11.153Z"
            transform="matrix(0.966, -0.259, 0.259, 0.966, 192.89, 192.118)" />
        <circle fill="#e2f5ed" cx="94" cy="94" r="94" transform="translate(53 218)" />
        <g transform="translate(-21.27 108.27)">
            <rect fill="#259164" width="58" height="69" rx="8" transform="translate(125.27 180.73)" />
            <g fill="#259164" stroke="#fff" stroke-linejoin="round" stroke-width="4px"
                transform="translate(148.27 157.73)">
                <rect width="58" height="69" rx="8" />
                <rect fill="none" x="-2" y="-2" width="62" height="73" rx="10" />
            </g>
        </g>
    </g>
</svg>
  