<svg xmlns="http://www.w3.org/2000/svg" width="181.196" height="324.66" viewBox="0 0 181.196 324.66">
    <g transform="translate(-121.804 -101)">
        <g transform="translate(-425.543 -26.52)">
            <g transform="translate(552.264 127.52)">
                <path
                    d="M616.448,201.8c-.251-.13,3.65-2.967,5.689-4.429a3.611,3.611,0,0,1,2.647-.637l6.371.955a.7.7,0,0,1,.331,1.239c-1.834,1.419-5.02,3.887-5.394,4.186C625.563,203.534,618.878,203.066,616.448,201.8Z"
                    transform="translate(-530.6 -105.83)" />
                <path
                    d="M612.354,150.987a10.209,10.209,0,0,1,1.572,3.774c.189,3.792-.57,7.11-5.12,8.153L606.72,152.3Z"
                    transform="translate(-533.646 -120.161)" />
                <path class="a"
                    d="M591.382,348.622l-.255,2.291a1.829,1.829,0,0,0-.763,2.291c.51,1.655,7.763,15.273,7.763,15.273s1.643,4.582,5.6,4.582c5.091,0,4.328-2.163,4.328-2.163A3.946,3.946,0,0,1,605,367.331c-.127-2.927-2.446-12.235-2.446-12.235l.192-4.99Z"
                    transform="translate(-538.813 -58.19)" />
                <path
                    d="M604.789,367.331c-.127-2.927-2.446-12.235-2.446-12.235l.192-4.99-11.364-1.484-.255,2.291,7.08,3.306Z"
                    transform="translate(-538.602 -58.19)" />
                <path
                    d="M591.815,350.366a1.829,1.829,0,0,0-.763,2.291c.51,1.655,7.763,15.273,7.763,15.273s1.643,4.582,5.6,4.582c5.091,0,4.328-2.163,4.328-2.163s4.961,2.783,5.17,3.826a4.579,4.579,0,0,1-.418,2.366s-8.558.905-11.341,0-2.783-1.113-2.992-1.809-2.991-9.184-5.288-11.063l.627,9.672h-1.461s-.766-9.047-3.41-12.246a4.236,4.236,0,0,1-1.461-4.176,17.261,17.261,0,0,1,1.878-4.592A3.688,3.688,0,0,1,591.815,350.366Z"
                    transform="translate(-539.5 -57.643)" />
                <path
                    d="M566.249,342.275s-3.347-2.06-6.082.089a6.451,6.451,0,0,0-2.345,5.471l-6.732,8.282.935,1.144,7.173-5.822a12.94,12.94,0,0,1-.415,8.109c-1.664,4.575-1.768,7.9,1.352,10.6s10.5,7.486,10.5,7.486,2.287.1,2.079-1.663-3.223-9.669-3.223-9.669l-3.243-24.032"
                    transform="translate(-551.09 -60.459)" />
                <path class="a"
                    d="M573.422,347.789l-4.3,12.9s-1.354,3.7-2.1,6.812a2.559,2.559,0,0,1-4,1.451c-1.3-.951-1.582-2.592-2.081-3.924-1.172-3.126-1.511-6.662-.143-11.743.9-3.354-.177-6.239.1-8.593a2.921,2.921,0,0,1,2.167-2.489l2.537-.662Z"
                    transform="translate(-548.324 -60.411)" />
                <path
                    d="M568.886,360.684l4.3-12.9-7.816-6.253-2.536.662a2.921,2.921,0,0,0-2.167,2.489,38.637,38.637,0,0,0,5.376,8.495Z"
                    transform="translate(-548.087 -60.411)" />
                <path class="b"
                    d="M621.473,209.483s5.792,2.684,4.825,7.62l-10.059,6.287-4.4,2.748-2.793-11.992,1.688-5.652Z"
                    transform="translate(-532.916 -102.129)" />
                <path d="M610.737,208.494l-1.688,5.652,2.793,11.992,4.4-2.748.386-13.43Z"
                    transform="translate(-532.916 -102.129)" />
                <path d="M619.925,209.539s5.792,2.684,4.825,7.62c0,0-11.041-5.784-10.758-7.9h0Z"
                    transform="translate(-531.368 -102.185)" />
                <path
                    d="M627.715,202.951a4.6,4.6,0,0,1,.821,2.463c-.164.985-2.3,3.038-3.448,3.367,0,0-1.149,2.627-3.284,3.284l-1.723,1.149-1.97-1.478,4.433-6.815Z"
                    transform="translate(-530.075 -103.867)" />
                <path class="b"
                    d="M595.912,173.278s13.964,5.093,15.935,11.5,7.885,21.849,7.885,21.849a72.5,72.5,0,0,1,.658,12.543c-.045,1.333-.133,2.718-.275,4.122a38.015,38.015,0,0,1-3.176,12.411s-.384-6.029-.966-12.819c-.11-1.293-.229-2.611-.352-3.922-.578-6.125-1.283-12.059-1.986-14.1-1.643-4.764-17.23-24.687-17.23-24.687l-1.807-2.464Z"
                    transform="translate(-537.447 -113.171)" />
                <path
                    d="M615.1,212.386c.142-1.4.23-2.789.275-4.122l-4.768-.209c.123,1.311.242,2.63.352,3.922Z"
                    transform="translate(-532.429 -102.267)" />
                <path class="c"
                    d="M595.9,173.936a38.014,38.014,0,0,0,6.635,5.417c.127.091-.969,1.046-.88,1.1.816.476,4.4,3.04,5.329,3.206,0,0,10.051,15.532,9.057,23.039"
                    transform="translate(-537.039 -112.965)" />
                <path class="a"
                    d="M597.784,188.807l1.855-4.724s7.255,13.469,6.758,21.358c-.093,1.37.592,3.191.936,3.96,1.464,3.011,4.168,9.13,4.168,9.13s2.926,2.347,3.478,4.188c.679,2.376,3.159,13.436,3.159,13.436s-7.4,11.486-7.708,11.7-4.109-1.123-4.273-1.66-3.261-6.155-3.54-7.381a48.946,48.946,0,0,1-.845-7.2,51.387,51.387,0,0,1,.28-8.523c.7-7.879-5.377-31.38-5.377-31.38l-3.062-6.118Z"
                    transform="translate(-537.679 -117.157)" />
                <path class="d"
                    d="M604.011,220.292s1.694-4.27,3.3-6.879c1.184-1.949,1.812-2.464,1.812-2.464s3.053-.683,4.19-1.246c.45-.216.857-.4,1.185-.563l-3.814-4.273a27.882,27.882,0,0,0-4.355,5.787c-1.8,3.6-2.6,8.638-2.912,11.421C601.605,220.84,604.011,220.292,604.011,220.292Z"
                    transform="translate(-532.916 -102.129)" />
                <path
                    d="M621.372,209.454a4.553,4.553,0,0,0-.821-2.463l-4.434,6.815,1.97,1.478,1.722-1.149c2.014-.671,3.051-2.629,3.052-4.73Z"
                    transform="translate(-530.075 -103.867)" />
            </g>
        </g>
    </g>
</svg>
  