<svg xmlns="http://www.w3.org/2000/svg" width="150.78" height="313.043" viewBox="0 0 150.78 313.043">
    <defs>
        <linearGradient id="gradient1" x1="0%" y1="0%" x2="100%" y2="0%">
            <stop offset="0%" style="stop-color:#FF5F6D;stop-opacity:1" />
            <stop offset="100%" style="stop-color:#FFC371;stop-opacity:1" />
        </linearGradient>
        <linearGradient id="gradient2" x1="0%" y1="0%" x2="100%" y2="0%">
            <stop offset="0%" style="stop-color:#5B808A;stop-opacity:1" />
            <stop offset="100%" style="stop-color:#259164;stop-opacity:1" />
        </linearGradient>
    </defs>
    <g transform="translate(-315.584 -83.784)">
        <g transform="translate(315.584 83.784)">
            <path fill="#FFC48E"
                d="M357.647,158.934c-2-3.065-8.625-18.076-3.429-24.2s7.531-4.133,7.531-4.133l2.946,5.118Z"
                transform="translate(-324.68 -95.314)" />
            <path fill="#FFC48E"
                d="M360.643,146.3c.161-1.872,2.878-15.6,2.878-15.6l2.946,5.118-7.047,23.22S359.944,154.451,360.643,146.3Z"
                transform="translate(-326.453 -95.417)" />
            <rect fill="#413847" width="92.778" height="181.823" rx="8.733"
                transform="translate(47.958 0) rotate(13.832)" />
            <path fill="#FFF"
                d="M408.652,267.364l-72.473-17.845a5.874,5.874,0,0,1-4.3-7.109L368.4,94.213a5.874,5.874,0,0,1,7.108-4.3l72.473,17.845a5.875,5.875,0,0,1,4.3,7.108l-36.517,148.2A5.876,5.876,0,0,1,408.652,267.364Z"
                transform="translate(-319.582 -85.261)" />
            <path fill="#FF7D51"
                d="M359.131,289.585s5.492,30.711,8.57,35.7,6.889,11.139,6.889,11.139l5.863,34.885h73.289L445.533,341.7s18.029-41.188,18.469-75.34-.147-57.165-4.251-71.236-5.424-19.787-11.433-21.107-8.794,4.544-9.527,8.649c-.393,2.2-.733,38.075-.733,38.075L434.1,249.06s-20.485,21.493-30.75,51.473l-20.534-5.714Z"
                transform="translate(-326.381 -106.11)" />
            <path fill="#FF616E"
                d="M462.725,396c-4.23,3.8-16.746,9.743-33.642,6.926,0,0,11.68,8.527,19.481,7.748S462.725,396,462.725,396Z"
                transform="translate(-343.726 -161.199)" />
            <path fill="none" stroke="#000" stroke-width="0.457px"
                d="M429.083,402.928c16.9,2.816,29.413-3.129,33.642-6.926"
                transform="translate(-343.726 -161.199)" />
            <path fill="none" stroke="#000" stroke-width="0.457px"
                d="M380.071,390.717a55.791,55.791,0,0,0,7.127,4.33"
                transform="translate(-331.573 -159.888)" />
            <path fill="#5B808A"
                d="M405.966,358.994s2.22-8.746,5.194-18.57l-20.534-5.714a89.989,89.989,0,0,0,8.157,14.768C400.184,351.528,405.966,358.994,405.966,358.994Z"
                transform="translate(-334.19 -146.001)" />
            <path fill="none" stroke="#FFF" stroke-width="0.183px"
                d="M411.777,355.7q2.9-11,6.11-21.918"
                transform="translate(-339.435 -145.772)" />
            <path fill="#259164" opacity="0.3"
                d="M341.181,196.911c-2.44.784-7.46,4.8-7.994,12.257s3.2,10.525,6.395,10.924,6.928-2.8,7.86-5.329,4.4-5.728,3.6-11.324S348.642,194.513,341.181,196.911Z"
                transform="translate(-319.936 -111.639)" />
            <path fill="#5B808A"
                d="M346.664,219.324a25.04,25.04,0,0,0,6.287-10.232,16.3,16.3,0,0,0-.735-11.832c-.764-1.513-5.041-2.264-8.383-.441"
                transform="translate(-322.588 -111.546)" />
            <path fill="#FFF7E7" opacity="0.47"
                d="M334.414,207.861c-.464,2.166-.6,5.766.481,7.928a11.394,11.394,0,0,0,4.084-.36s2.282-7.808,3.724-9.97,2.643-5.4,1.682-6.366-3.483-.481-4.324-.241S335.5,202.816,334.414,207.861Z"
                transform="translate(-320.167 -112.232)" />
            <path fill="#259164" opacity="0.1"
                d="M333.4,241.315c-2.9-1.548-10.8.549-13.195,7.476s-1.525,14.536,7.594,15.588c4.46.514,6.7-.64,9.226-9.091a23.057,23.057,0,0,0,1.307-7.945C338.082,243.991,336.125,242.766,333.4,241.315Z"
                transform="translate(-316.448 -122.725)" />
            <path fill="none" stroke="#413847" stroke-width="0.36px"
                d="M338.553,242.644c3.4,1.841,4,4.023,4.06,5.033a9.555,9.555,0,0,1-.471,2.983l-1.15,4.282c-.969,3.6-3.714,9.937-7.821,10.078"
                transform="translate(-319.944 -123.174)" />
            <path fill="#5B808A"
                d="M316.814,297.224c1.3-3.077,5.063-3.065,8.394-2.8s11.724.666,12.123,8.926-3.135,9.161-9.263,9.827-10.454,1.5-11.786-3.832A19.447,19.447,0,0,1,316.814,297.224Z"
                transform="translate(-315.584 -135.986)" />
            <path fill="none" stroke="#413847" stroke-width="0.36px"
                d="M332.157,294.821a15.324,15.324,0,0,1,6.1,2.138c1.782,1.242,3.656,3.383,3.326,5.53"
                transform="translate(-319.693 -136.199)" />
            <path fill="#5B808A"
                d="M351.046,230.6c1.4-.226,6.789-4.3,8.956-3.23s7.531,5.71,5.2,9.612-8.65,8.02-10.543,8.47-7.269-.311-6.944-3.622A15.086,15.086,0,0,1,351.046,230.6Z"
                transform="translate(-323.135 -126.333)" />
            <path fill="#413847"
                d="M336.838,239.883c.64-1.357,3.618-5.19,5.7-4.3s2.717,5.714,1.587,8.049-4.041,3.122-5.246,3.708-3.308-1.186-2.671-3.417A7.421,7.421,0,0,1,336.838,239.883Z"
                transform="translate(-319.458 -125.828)" />
            <path fill="#5B808A"
                d="M364.3,264.936c-.453-1.722-1.072-6.976-5.115-6.116s-6.3,5.355-5.025,8.083,4.9,3.829,6.757,3.786,3.9-1.333,3.74-3.857S364.755,266.658,364.3,264.936Z"
                transform="translate(-327.13 -131.172)" />
            <path fill="#413847"
                d="M349.451,271.362c-.093-1.669-.547-5.883-3.736-5.541s-5.93,4.226-5.341,7.006,3.627,2.845,5,2.758,3.222-.992,3.358-2.89S349.544,272.031,349.451,271.362Z"
                transform="translate(-323.293 -133.248)" />
            <path fill="#5B808A"
                d="M381.057,232.223c-.106-1.374-1.009-5.891-4.116-5.549s-5.981,3.869-5.392,6.671,4.425,2.767,5.761,2.58,3.156-.931,3.292-2.83S381.162,232.892,381.057,232.223Z"
                transform="translate(-332.306 -127.065)" />
            <path fill="#413847"
                d="M366.585,240.415c-.067-1.6-.306-4.9-2.923-5.054s-4.875,3.7-4.626,5.489,2.763,2.688,4.037,2.569,2.618-.931,2.732-2.671S366.652,240.966,366.585,240.415Z"
                transform="translate(-328.264 -128.201)" />
            <path fill="#5B808A"
                d="M385.248,265.43c-.373-1.295-1.271-5.427-4.268-4.985s-5.639,3.868-5.135,6.311,4.227,2.75,5.515,2.628,2.962-1,3.074-2.895S385.622,265.7,385.248,265.43Z"
                transform="translate(-335.89 -131.662)" />
            <path fill="#413847"
                d="M372.619,273.507c-.044-1.467-.213-4.411-2.561-4.643s-4.617,3.467-4.4,5.2,2.522,2.59,3.625,2.471,2.356-.841,2.456-2.417S372.663,273.909,372.619,273.507Z"
                transform="translate(-331.879 -133.811)" />
            <path fill="#5B808A"
                d="M402.311,234.5c-.267-1.2-.907-4.722-3.561-4.378s-5.258,3.464-4.739,5.845,3.885,2.432,5.053,2.322,2.741-.838,2.855-2.413S402.578,234.788,402.311,234.5Z"
                transform="translate(-340.399 -127.487)" />
            <path fill="#413847"
                d="M388.508,242.307c-.03-1.366-.179-4.26-2.148-4.489s-4.52,3.24-4.3,4.857,2.469,2.427,3.567,2.32,2.327-.818,2.42-2.354S388.538,242.623,388.508,242.307Z"
                transform="translate(-336.572 -128.593)" />
            <path fill="#5B808A"
                d="M417.474,267.041c-.184-1.047-.624-4.193-2.463-3.874s-4.594,3.027-4.137,5.108,3.394,2.123,4.423,2.029,2.413-.735,2.515-2.11S417.657,267.28,417.474,267.041Z"
                transform="translate(-344.941 -131.781)" />
            <path fill="#413847"
                d="M404.45,274.623c-.022-1.172-.133-3.546-1.607-3.739s-3.605,2.708-3.432,4.061,1.96,2.013,2.83,1.926,1.843-.67,1.919-1.934S404.472,274.923,404.45,274.623Z"
                transform="translate(-340.556 -133.909)" />
            <path fill="#5B808A"
                d="M370.813,287.527c-.011-1.053-.054-3.187-.866-3.33s-2.4,2.415-2.285,3.616,1.309,1.795,1.891,1.722,1.237-.604,1.288-1.737S370.824,287.75,370.813,287.527Z"
                transform="translate(-331.277 -136.061)" />
            <path fill="#413847"
                d="M357.943,294.075c0-1.1-.066-2.859-.633-3s-1.758,2.133-1.674,3.186,1.034,1.586,1.493,1.522,1-.531,1.036-1.522S357.944,294.227,357.943,294.075Z"
                transform="translate(-327.331 -138.119)" />
            <path fill="#5B808A"
                d="M338.73,296.931c-.011-.947-.046-2.864-.573-3s-1.6,2.065-1.525,3.1.923,1.532,1.336,1.469.879-.513.914-1.469S338.741,297.072,338.73,296.931Z"
                transform="translate(-322.978 -139.129)" />
            <path fill="#413847"
                d="M320.642,298.923c0-.982-.059-2.545-.562-2.684s-1.563,1.935-1.486,2.9.9,1.443,1.305,1.383.855-.479.884-1.383S320.643,299.1,320.642,298.923Z"
                transform="translate(-318.902 -139.836)" />
            <path fill="#5B808A"
                d="M300.375,299.676c0-.875-.052-2.271-.5-2.391s-1.383,1.751-1.314,2.624.8,1.313,1.165,1.258.763-.427.788-1.258S300.375,299.833,300.375,299.676Z"
                transform="translate(-314.771 -140.27)" />
            <path fill="#5B808A"
                d="M385.941,285.672c.026-1.017.106-2.719.737-3.615s2.019-1.553,2.446-2.256.855-1.152.988-1.11.545.383.562,1.113-.1,1.081-.481,1.565-1.006,1.265-1.3,2.046S385.915,285.787,385.941,285.672Z"
                transform="translate(-336.629 -134.81)" />
            <path fill="#5B808A"
                d="M374.19,292.476c.027-.947.113-2.522.805-3.35s2.186-1.441,2.632-2.1.915-1.068,1.056-1.024.582.357.6,1.043-.107,1.015-.489,1.473-1.027,1.193-1.324,1.925S374.163,292.584,374.19,292.476Z"
                transform="translate(-332.602 -136.926)" />
            <path fill="#5B808A"
                d="M363.714,297.7c.027-1,.113-2.522.8-3.351s2.182-1.442,2.631-2.1.911-1.067,1.054-1.023.582.357.6,1.042-.107,1.015-.489,1.474-1.03,1.193-1.328,1.924S363.688,297.806,363.714,297.7Z"
                transform="translate(-329.274 -138.178)" />
            <path fill="#5B808A"
                d="M353.494,300.27c.027-1,.113-2.522.8-3.351s2.182-1.442,2.631-2.1.911-1.067,1.054-1.024.582.357.6,1.043-.107,1.015-.489,1.474-1.03,1.193-1.328,1.924S353.467,300.376,353.494,300.27Z"
                transform="translate(-326.458 -139.295)" />
            <path fill="#5B808A"
                d="M343.473,302.428c.027-1,.113-2.522.8-3.351s2.182-1.442,2.631-2.1.911-1.067,1.054-1.024.582.357.6,1.043-.107,1.015-.489,1.474-1.03,1.193-1.328,1.924S343.446,302.534,343.473,302.428Z"
                transform="translate(-323.145 -140.394)" />
            <path fill="#5B808A"
                d="M331.35,304.042c.027-1,.113-2.522.8-3.351s2.182-1.442,2.631-2.1.911-1.067,1.054-1.024.582.357.6,1.043-.107,1.015-.489,1.474-1.03,1.193-1.328,1.924S331.324,304.148,331.35,304.042Z"
                transform="translate(-319.314 -141.295)" />
            <path fill="#5B808A"
                d="M318.491,304.88c.027-1,.113-2.522.8-3.351s2.182-1.442,2.631-2.1.911-1.067,1.054-1.024.582.357.6,1.042-.107,1.015-.489,1.474-1.03,1.193-1.328,1.924S318.465,304.986,318.491,304.88Z"
                transform="translate(-315.343 -141.95)" />
            <path fill="#259164"
                d="M380.156,221.1c-3.686-1.924-7.823-1.439-11.1,1.531-2.626,2.455-4.213,5.969-6.616,8.673-3.035,3.552-7.276,5.027-11.845,4.913s-8.837-2.519-10.813-6.158c-1.918-3.5-1.686-7.73-2.06-11.65-.425-4.484-1.95-8.805-2.246-13.286-.336-5.351,1.076-10.7,3.678-15.329,2.678-4.8,6.974-8.712,11.921-11.438,3.13-1.854,6.6-3.146,10.315-3.221s7.54,1.328,10.892,3.194c3.181,1.8,6.107,4.2,8.077,7.287,1.533,2.42,2.234,5.218,2.134,8.041-.126,3.279-1.25,6.417-2.19,9.582a70.2,70.2,0,0,1-1.43,4.28C380.864,219.5,380.4,220.107,380.156,221.1Z"
                transform="translate(-333.545 -109.402)" />
            <path fill="#259164"
                d="M369.17,200.75c.483-4.251,1.965-8.4,4.117-12.1,2.589-4.475,6.207-8.378,10.705-10.759,4.193-2.247,9.024-3.429,13.678-4.145,4.3-.656,8.793-.821,13.171.169,3.1.8,6.075,2.329,8.738,4.405s5.077,4.76,6.071,7.938c1.2,3.719.13,7.6-.725,11.388s-2.054,7.522-3.645,11.016c-1.9,4.063-4.3,8.033-7.031,11.733-1.8,2.6-3.8,5.1-6.4,7.092s-5.8,3.6-9.144,4.612c-3.6,1.17-7.379,1.8-11.125,1.7s-7.693-.981-11.413-2.384c-3.929-1.56-7.629-3.646-11.128-5.965-3.4-2.22-6.6-4.664-9.2-7.75C371.676,209.973,368.6,205.028,369.17,200.75Z"
                transform="translate(-334.661 -101.822)" />
            <path fill="#FFC48E"
                d="M371.938,207.987c-.5,2.488-2.488,4.342-4.756,4.593-2.738.3-5.448-1.967-6.477-4.527s-.272-5.406,2.047-6.993c1.9-1.688,4.812-2.322,7.47-1.87,2.349.391,4.53,1.561,5.875,3.9A4.667,4.667,0,0,1,371.938,207.987Z"
                transform="translate(-331.877 -103.203)" />
            <path fill="#FFC48E"
                d="M354.543,201.219c-.576,2.439-2.546,4.206-4.809,4.373-2.728.182-5.44-1.736-6.473-4.3s-.372-5.324,1.92-6.967c1.909-1.592,4.8-2.053,7.469-1.61s4.534,1.516,5.869,3.787A4.68,4.68,0,0,1,354.543,201.219Z"
                transform="translate(-326.5 -104.2)" />
            <path fill="#FFC48E"
                d="M362.822,197.618c-1.392,2.573-4.062,3.774-6.791,3.607-2.721-.174-5.144-1.885-6.148-4.586s-.321-5.346,1.984-7.016c1.936-1.562,4.942-1.941,7.611-1.527s4.555,1.308,5.819,3.568A4.667,4.667,0,0,1,362.822,197.618Z"
                transform="translate(-329.113 -105.279)" />
            <path fill="#FFC48E"
                d="M372.325,192.532c-.672,2.363-2.922,4.029-5.239,4.042s-4.727-1.872-5.671-4.239-.446-5.269,1.842-6.877c1.822-1.48,4.628-1.755,7.238-1.35s4.395,1.237,5.645,3.384A4.664,4.664,0,0,1,372.325,192.532Z"
                transform="translate(-332.286 -106.7)" />
            <path fill="#FFC48E"
                d="M382.48,191.256c-.327,2.441-2.881,4.2-5.19,4.4-2.754.256-5.485-1.774-6.531-4.283s-.272-5.4,2.067-6.99c1.949-1.666,4.855-2.293,7.512-1.834s4.588,1.5,5.899,3.781A4.679,4.679,0,0,1,382.48,191.256Z"
                transform="translate(-335.465 -107.634)" />
            <path fill="#FFC48E"
                d="M392.236,190.82c-.467,2.5-2.58,4.306-4.881,4.367-2.714.081-5.441-1.852-6.475-4.4s-.409-5.334,1.884-6.945c1.89-1.564,4.769-2.073,7.435-1.635s4.532,1.477,5.843,3.746A4.677,4.677,0,0,1,392.236,190.82Z"
                transform="translate(-338.728 -108.677)" />
            <path fill="#FFC48E"
                d="M401.158,193.394c-1.388,2.584-4.053,3.774-6.782,3.607s-5.15-1.882-6.148-4.586-.317-5.337,1.988-7.016c1.934-1.555,4.935-1.945,7.6-1.527s4.55,1.306,5.814,3.568A4.668,4.668,0,0,1,401.158,193.394Z"
                transform="translate(-341.34 -109.755)" />
            <path fill="#FFC48E"
                d="M410.552,199.163c-.575,2.444-2.58,4.206-4.844,4.373-2.738.18-5.444-1.736-6.477-4.3s-.366-5.321,1.926-6.967c1.909-1.6,4.8-2.063,7.47-1.61s4.541,1.522,5.875,3.787A4.676,4.676,0,0,1,410.552,199.163Z"
                transform="translate(-344.76 -110.752)" />
            <path fill="#FFC48E"
                d="M418.832,202.763c-1.388,2.573-4.062,3.774-6.791,3.607-2.721-.174-5.144-1.885-6.148-4.586s-.321-5.346,1.984-7.016c1.936-1.562,4.942-1.941,7.611-1.527s4.555,1.308,5.819,3.568A4.668,4.668,0,0,1,418.832,202.763Z"
                transform="translate(-347.373 -111.832)" />
            <path fill="#FFC48E"
                d="M380.985,236.788c.186-2.516,1.512-4.635,3.449-6.369s4.342-3.123,7.061-3.461c2.8-.352,5.671.51,8.348,1.284s5.407,1.742,7.133,3.914c1.6,2.032,1.825,4.753,1.8,7.256-.03,2.583-.429,5.2-1.678,7.411s-3.209,4.49-5.539,6.159c-2.529,1.882-5.484,3.339-8.579,4.116-3.146.8-6.431,1.029-9.624.609-3.365-.449-6.688-1.38-9.782-2.963s-5.933-3.381-7.866-6.328c-1.858-2.861-2.441-6.458-1.943-9.77C378.783,241.667,380.8,239.105,380.985,236.788Z"
                transform="translate(-336.277 -117.703)" />
            <path fill="#FFC48E"
                d="M364.8,237.556c.177-2.4,1.385-4.419,3.165-6.088s3.988-2.911,6.478-3.222c2.573-.315,5.213.455,7.68,1.143s4.957,1.567,6.55,3.512c1.468,1.867,1.675,4.361,1.653,6.681-.025,2.361-.337,4.753-1.655,6.756s-3.157,4.13-5.453,5.68c-2.491,1.854-5.4,3.282-8.421,4.038-3.088.786-6.309,1.011-9.427.6-3.299-.44-6.562-1.356-9.602-2.905s-5.779-3.313-7.641-6.18c-1.81-2.774-2.376-6.267-1.887-9.523C362.693,242.087,364.623,239.77,364.8,237.556Z"
                transform="translate(-331.678 -117.983)" />
            <path fill="#FFC48E"
                d="M389.67,219.626c-.676,2.535-2.648,4.356-5.007,4.477-2.7.14-5.335-1.615-6.29-4.16s-.333-5.285,1.75-6.881c1.715-1.546,4.366-1.9,6.808-1.509s4.187,1.411,5.45,3.276A4.678,4.678,0,0,1,389.67,219.626Z"
                transform="translate(-334.12 -112.805)" />
            <path fill="#FFC48E"
                d="M378.131,225.256c-.676,2.535-2.648,4.356-5.007,4.477-2.7.14-5.335-1.615-6.29-4.16s-.333-5.285,1.75-6.881c1.715-1.546,4.366-1.9,6.808-1.509s4.187,1.411,5.45,3.276A4.677,4.677,0,0,1,378.131,225.256Z"
                transform="translate(-330.768 -114.038)" />
            <path fill="#FFC48E"
                d="M397.575,214.337c-.663,2.535-2.633,4.356-4.991,4.477-2.7.14-5.335-1.615-6.29-4.16s-.333-5.285,1.75-6.881c1.715-1.546,4.366-1.9,6.808-1.509s4.187,1.411,5.45,3.276A4.677,4.677,0,0,1,397.575,214.337Z"
                transform="translate(-337.191 -113.034)" />
            <path fill="#FFC48E"
                d="M362.614,212.432c-.675,2.535-2.646,4.356-5.007,4.477-2.7.14-5.335-1.615-6.29-4.16s-.333-5.285,1.75-6.881c1.715-1.546,4.366-1.9,6.808-1.509s4.187,1.411,5.45,3.276A4.677,4.677,0,0,1,362.614,212.432Z"
                transform="translate(-328.157 -112.456)" />
            <path fill="#FFC48E"
                d="M386.161,232.656c-.663,2.535-2.633,4.356-4.991,4.477-2.7.14-5.335-1.615-6.29-4.16s-.333-5.285,1.75-6.881c1.715-1.546,4.366-1.9,6.808-1.509s4.187,1.411,5.45,3.276A4.677,4.677,0,0,1,386.161,232.656Z"
                transform="translate(-335.182 -115.045)" />
            <path fill="#FFC48E"
                d="M373.162,230.938c-.675,2.535-2.646,4.356-5.007,4.477-2.7.14-5.335-1.615-6.29-4.16s-.333-5.285,1.75-6.881c1.715-1.546,4.366-1.9,6.808-1.509s4.187,1.411,5.45,3.276A4.678,4.678,0,0,1,373.162,230.938Z"
                transform="translate(-331.512 -114.535)" />
            <path fill="#FFC48E"
                d="M392.606,219.985c-.663,2.535-2.633,4.356-4.991,4.477-2.7.14-5.335-1.615-6.29-4.16s-.333-5.285,1.75-6.881c1.715-1.546,4.366-1.9,6.808-1.509s4.187,1.411,5.45,3.276A4.677,4.677,0,0,1,392.606,219.985Z"
                transform="translate(-338.933 -113.531)" />
            <path fill="#FFC48E"
                d="M357.647,218.08c-.675,2.535-2.646,4.356-5.007,4.477-2.7.14-5.335-1.615-6.29-4.16s-.333-5.285,1.75-6.881c1.715-1.546,4.366-1.9,6.808-1.509s4.187,1.411,5.45,3.276A4.677,4.677,0,0,1,357.647,218.08Z"
                transform="translate(-327.9 -112.953)" />
            <path fill="#FFC48E"
                d="M381.194,238.3c-.663,2.535-2.633,4.356-4.991,4.477-2.7.14-5.335-1.615-6.29-4.16s-.333-5.285,1.75-6.881c1.715-1.546,4.366-1.9,6.808-1.509s4.187,1.411,5.45,3.276A4.677,4.677,0,0,1,381.194,238.3Z"
                transform="translate(-334.925 -116.542)" />
            <path fill="#FFC48E"
                d="M368.195,236.582c-.675,2.535-2.646,4.356-5.007,4.477-2.7.14-5.335-1.615-6.29-4.16s-.333-5.285,1.75-6.881c1.715-1.546,4.366-1.9,6.808-1.509s4.187,1.411,5.45,3.276A4.678,4.678,0,0,1,368.195,236.582Z"
                transform="translate(-331.255 -116.032)" />
            <path fill="#FFC48E"
                d="M387.639,225.629c-.663,2.535-2.633,4.356-4.991,4.477-2.7.14-5.335-1.615-6.29-4.16s-.333-5.285,1.75-6.881c1.715-1.546,4.366-1.9,6.808-1.509s4.187,1.411,5.45,3.276A4.677,4.677,0,0,1,387.639,225.629Z"
                transform="translate(-338.676 -115.028)" />
            <path fill="#FFC48E"
                d="M352.681,223.724c-.675,2.535-2.646,4.356-5.007,4.477-2.7.14-5.335-1.615-6.29-4.16s-.333-5.285,1.75-6.881c1.715-1.546,4.366-1.9,6.808-1.509s4.187,1.411,5.45,3.276A4.678,4.678,0,0,1,352.681,223.724Z"
                transform="translate(-327.642 -114.451)" />
            <path fill="#FFC48E"
                d="M376.228,243.944c-.663,2.535-2.633,4.356-4.991,4.477-2.7.14-5.335-1.615-6.29-4.16s-.333-5.285,1.75-6.881c1.715-1.546,4.366-1.9,6.808-1.509s4.187,1.411,5.45,3.276A4.677,4.677,0,0,1,376.228,243.944Z"
                transform="translate(-334.667 -117.039)" />
            <path fill="#FFC48E"
                d="M363.229,242.226c-.675,2.535-2.646,4.356-5.007,4.477-2.7.14-5.335-1.615-6.29-4.16s-.333-5.285,1.75-6.881c1.715-1.546,4.366-1.9,6.808-1.509s4.187,1.411,5.45,3.276A4.678,4.678,0,0,1,363.229,242.226Z"
                transform="translate(-331.997 -116.529)" />
            <path fill="#FFC48E"
                d="M382.674,231.273c-.663,2.535-2.633,4.356-4.991,4.477-2.7.14-5.335-1.615-6.29-4.16s-.333-5.285,1.75-6.881c1.715-1.546,4.366-1.9,6.808-1.509s4.187,1.411,5.45,3.276A4.677,4.677,0,0,1,382.674,231.273Z"
                transform="translate(-339.42 -115.526)" />
            <path fill="#FFC48E"
                d="M369.675,229.555c-.675,2.535-2.646,4.356-5.007,4.477-2.7.14-5.335-1.615-6.29-4.16s-.333-5.285,1.75-6.881c1.715-1.546,4.366-1.9,6.808-1.509s4.187,1.411,5.45,3.276A4.678,4.678,0,0,1,369.675,229.555Z"
                transform="translate(-336.75 -115.017)" />
            <path fill="#FFC48E"
                d="M389.119,218.6c-.663,2.535-2.633,4.356-4.991,4.477-2.7.14-5.335-1.615-6.29-4.16s-.333-5.285,1.75-6.881c1.715-1.546,4.366-1.9,6.808-1.509s4.187,1.411,5.45,3.276A4.677,4.677,0,0,1,389.119,218.6Z"
                transform="translate(-344.171 -114.012)" />
            <path fill="#FFC48E"
                d="M354.16,216.694c-.675,2.535-2.646,4.356-5.007,4.477-2.7.14-5.335-1.615-6.29-4.16s-.333-5.285,1.75-6.881c1.715-1.546,4.366-1.9,6.808-1.509s4.187,1.411,5.45,3.276A4.677,4.677,0,0,1,354.16,216.694Z"
                transform="translate(-329.138 -113.434)" />
            <path fill="#FFC48E"
                d="M377.707,236.912c-.663,2.535-2.633,4.356-4.991,4.477-2.7.14-5.335-1.615-6.29-4.16s-.333-5.285,1.75-6.881c1.715-1.546,4.366-1.9,6.808-1.509s4.187,1.411,5.45,3.276A4.677,4.677,0,0,1,377.707,236.912Z"
                transform="translate(-336.163 -115.02)" />
            <path fill="#FFC48E"
                d="M364.708,235.194c-.675,2.535-2.646,4.356-5.007,4.477-2.7.14-5.335-1.615-6.29-4.16s-.333-5.285,1.75-6.881c1.715-1.546,4.366-1.9,6.808-1.509s4.187,1.411,5.45,3.276A4.678,4.678,0,0,1,364.708,235.194Z"
                transform="translate(-333.493 -114.51)" />
            <path fill="#FFC48E"
                d="M384.153,224.241c-.663,2.535-2.633,4.356-4.991,4.477-2.7.14-5.335-1.615-6.29-4.16s-.333-5.285,1.75-6.881c1.715-1.546,4.366-1.9,6.808-1.509s4.187,1.411,5.45,3.276A4.677,4.677,0,0,1,384.153,224.241Z"
                transform="translate(-340.914 -113.506)" />
            <path fill="#FFC48E"
                d="M349.194,222.335c-.675,2.535-2.646,4.356-5.007,4.477-2.7.14-5.335-1.615-6.29-4.16s-.333-5.285,1.75-6.881c1.715-1.546,4.366-1.9,6.808-1.509s4.187,1.411,5.45,3.276A4.677,4.677,0,0,1,349.194,222.335Z"
                transform="translate(-329.88 -112.928)" />
            <path fill="#FFC48E"
                d="M372.741,242.554c-.663,2.535-2.633,4.356-4.991,4.477-2.7.14-5.335-1.615-6.29-4.16s-.333-5.285,1.75-6.881c1.715-1.546,4.366-1.9,6.808-1.509s4.187,1.411,5.45,3.276A4.677,4.677,0,0,1,372.741,242.554Z"
                transform="translate(-336.905 -116.518)" />
            <path fill="#FFC48E"
                d="M359.742,240.836c-.675,2.535-2.646,4.356-5.007,4.477-2.7.14-5.335-1.615-6.29-4.16s-.333-5.285,1.75-6.881c1.715-1.546,4.366-1.9,6.808-1.509s4.187,1.411,5.45,3.276A4.677,4.677,0,0,1,359.742,240.836Z"
                transform="translate(-334.235 -116.008)" />
            <path fill="#FFC48E"
                d="M379.187,229.883c-.663,2.535-2.633,4.356-4.991,4.477-2.7.14-5.335-1.615-6.29-4.16s-.333-5.285,1.75-6.881c1.715-1.546,4.366-1.9,6.808-1.509s4.187,1.411,5.45,3.276A4.677,4.677,0,0,1,379.187,229.883Z"
                transform="translate(-341.657 -115.004)" />
            <path fill="#FFC48E"
                d="M366.188,228.165c-.675,2.535-2.646,4.356-5.007,4.477-2.7.14-5.335-1.615-6.29-4.16s-.333-5.285,1.75-6.881c1.715-1.546,4.366-1.9,6.808-1.509s4.187,1.411,5.45,3.276A4.678,4.678,0,0,1,366.188,228.165Z"
                transform="translate(-339.047 -114.494)" />
            <path fill="#FFC48E"
                d="M385.632,217.212c-.663,2.535-2.633,4.356-4.991,4.477-2.7.14-5.335-1.615-6.29-4.16s-.333-5.285,1.75-6.881c1.715-1.546,4.366-1.9,6.808-1.509s4.187,1.411,5.45,3.276A4.677,4.677,0,0,1,385.632,217.212Z"
                transform="translate(-346.469 -113.49)" />
            <path fill="#FFC48E"
                d="M350.674,215.306c-.675,2.535-2.646,4.356-5.007,4.477-2.7.14-5.335-1.615-6.29-4.16s-.333-5.285,1.75-6.881c1.715-1.546,4.366-1.9,6.808-1.509s4.187,1.411,5.45,3.276A4.677,4.677,0,0,1,350.674,215.306Z"
                transform="translate(-331.435 -112.912)" />
            <path fill="#FFC48E"
                d="M374.221,235.526c-.663,2.535-2.633,4.356-4.991,4.477-2.7.14-5.335-1.615-6.29-4.16s-.333-5.285,1.75-6.881c1.715-1.546,4.366-1.9,6.808-1.509s4.187,1.411,5.45,3.276A4.677,4.677,0,0,1,374.221,235.526Z"
                transform="translate(-338.461 -115.497)" />
            <path fill="#FFC48E"
                d="M361.222,233.808c-.675,2.535-2.646,4.356-5.007,4.477-2.7.14-5.335-1.615-6.29-4.16s-.333-5.285,1.75-6.881c1.715-1.546,4.366-1.9,6.808-1.509s4.187,1.411,5.45,3.276A4.678,4.678,0,0,1,361.222,233.808Z"
                transform="translate(-335.791 -114.987)" />
            <path fill="#FFC48E"
                d="M380.667,222.855c-.663,2.535-2.633,4.356-4.991,4.477-2.7.14-5.335-1.615-6.29-4.16s-.333-5.285,1.75-6.881c1.715-1.546,4.366-1.9,6.808-1.509s4.187,1.411,5.45,3.276A4.677,4.677,0,0,1,380.667,222.855Z"
                transform="translate(-343.212 -113.983)" />
            <path fill="#FFC48E"
                d="M367.668,221.137c-.675,2.535-2.646,4.356-5.007,4.477-2.7.14-5.335-1.615-6.29-4.16s-.333-5.285,1.75-6.881c1.715-1.546,4.366-1.9,6.808-1.509s4.187,1.411,5.45,3.276A4.678,4.678,0,0,1,367.668,221.137Z"
                transform="translate(-340.542 -113.474)" />
            <path fill="#FFC48E"
                d="M387.113,210.184c-.663,2.535-2.633,4.356-4.991,4.477-2.7.14-5.335-1.615-6.29-4.16s-.333-5.285,1.75-6.881c1.715-1.546,4.366-1.9,6.808-1.509s4.187,1.411,5.45,3.276A4.677,4.677,0,0,1,387.113,210.184Z"
                transform="translate(-347.964 -112.47)" />
            <path fill="#FFC48E"
                d="M352.155,208.279c-.675,2.535-2.646,4.356-5.007,4.477-2.7.14-5.335-1.615-6.29-4.16s-.333-5.285,1.75-6.881c1.715-1.546,4.366-1.9,6.808-1.509s4.187,1.411,5.45,3.276A4.677,4.677,0,0,1,352.155,208.279Z"
                transform="translate(-322.931 -111.892)" />
            <path fill="#FFC48E"
                d="M375.702,228.497c-.663,2.535-2.633,4.356-4.991,4.477-2.7.14-5.335-1.615-6.29-4.16s-.333-5.285,1.75-6.881c1.715-1.546,4.366-1.9,6.808-1.509s4.187,1.411,5.45,3.276A4.677,4.677,0,0,1,375.702,228.497Z"
                transform="translate(-336.956 -114.563)" />
            <path fill="#FFC48E"
                d="M362.703,226.779c-.675,2.535-2.646,4.356-5.007,4.477-2.7.14-5.335-1.615-6.29-4.16s-.333-5.285,1.75-6.881c1.715-1.546,4.366-1.9,6.808-1.509s4.187,1.411,5.45,3.276A4.678,4.678,0,0,1,362.703,226.779Z"
                transform="translate(-334.286 -114.053)" />
            <path fill="#FFC48E"
                d="M382.147,215.826c-.663,2.535-2.633,4.356-4.991,4.477-2.7.14-5.335-1.615-6.29-4.16s-.333-5.285,1.75-6.881c1.715-1.546,4.366-1.9,6.808-1.509s4.187,1.411,5.45,3.276A4.677,4.677,0,0,1,382.147,215.826Z"
                transform="translate(-341.707 -113.048)" />
            <path fill="#FFC48E"
                d="M369.148,214.108c-.675,2.535-2.646,4.356-5.007,4.477-2.7.14-5.335-1.615-6.29-4.16s-.333-5.285,1.75-6.881c1.715-1.546,4.366-1.9,6.808-1.509s4.187,1.411,5.45,3.276A4.678,4.678,0,0,1,369.148,214.108Z"
                transform="translate(-339.037 -112.539)" />
            <path fill="#FFC48E"
                d="M388.593,203.155c-.663,2.535-2.633,4.356-4.991,4.477-2.7.14-5.335-1.615-6.29-4.16s-.333-5.285,1.75-6.881c1.715-1.546,4.366-1.9,6.808-1.509s4.187,1.411,5.45,3.276A4.677,4.677,0,0,1,388.593,203.155Z"
                transform="translate(-348.458 -111.534)" />
            <path fill="#FFC48E"
                d="M353.635,201.249c-.675,2.535-2.646,4.356-5.007,4.477-2.7.14-5.335-1.615-6.29-4.16s-.333-5.285,1.75-6.881c1.715-1.546,4.366-1.9,6.808-1.509s4.187,1.411,5.45,3.276A4.677,4.677,0,0,1,353.635,201.249Z"
                transform="translate(-323.425 -110.957)" />
            <path fill="#FFC48E"
                d="M377.182,221.467c-.663,2.535-2.633,4.356-4.991,4.477-2.7.14-5.335-1.615-6.29-4.16s-.333-5.285,1.75-6.881c1.715-1.546,4.366-1.9,6.808-1.509s4.187,1.411,5.45,3.276A4.677,4.677,0,0,1,377.182,221.467Z"
                transform="translate(-337.45 -114.572)" />
            <path fill="#FFC48E"
                d="M364.183,219.749c-.675,2.535-2.646,4.356-5.007,4.477-2.7.14-5.335-1.615-6.29-4.16s-.333-5.285,1.75-6.881c1.715-1.546,4.366-1.9,6.808-1.509s4.187,1.411,5.45,3.276A4.678,4.678,0,0,1,364.183,219.749Z"
                transform="translate(-334.78 -114.062)" />
            <path fill="#FFC48E"
                d="M383.627,208.796c-.663,2.535-2.633,4.356-4.991,4.477-2.7.14-5.335-1.615-6.29-4.16s-.333-5.285,1.75-6.881c1.715-1.546,4.366-1.9,6.808-1.509s4.187,1.411,5.45,3.276A4.677,4.677,0,0,1,383.627,208.796Z"
                transform="translate(-342.202 -113.058)" />
            <path fill="#FFC48E"
                d="M370.628,207.078c-.675,2.535-2.646,4.356-5.007,4.477-2.7.14-5.335-1.615-6.29-4.16s-.333-5.285,1.75-6.881c1.715-1.546,4.366-1.9,6.808-1.509s4.187,1.411,5.45,3.276A4.678,4.678,0,0,1,370.628,207.078Z"
                transform="translate(-339.532 -112.548)" />
            <path fill="#FFC48E"
                d="M390.073,196.125c-.663,2.535-2.633,4.356-4.991,4.477-2.7.14-5.335-1.615-6.29-4.16s-.333-5.285,1.75-6.881c1.715-1.546,4.366-1.9,6.808-1.509s4.187,1.411,5.45,3.276A4.677,4.677,0,0,1,390.073,196.125Z"
                transform="translate(-349.953 -111.544)" />
            <path fill="#FFC48E"
                d="M355.115,194.219c-.675,2.535-2.646,4.356-5.007,4.477-2.7.14-5.335-1.615-6.29-4.16s-.333-5.285,1.75-6.881c1.715-1.546,4.366-1.9,6.808-1.509s4.187,1.411,5.45,3.276A4.677,4.677,0,0,1,355.115,194.219Z"
                transform="translate(-324.919 -110.966)" />
            <path fill="#FFC48E"
                d="M378.662,214.438c-.663,2.535-2.633,4.356-4.991,4.477-2.7.14-5.335-1.615-6.29-4.16s-.333-5.285,1.75-6.881c1.715-1.546,4.366-1.9,6.808-1.509s4.187,1.411,5.45,3.276A4.677,4.677,0,0,1,378.662,214.438Z"
                transform="translate(-338.944 -114.571)" />
            <path fill="#FFC48E"
                d="M365.663,212.72c-.675,2.535-2.646,4.356-5.007,4.477-2.7.14-5.335-1.615-6.29-4.16s-.333-5.285,1.75-6.881c1.715-1.546,4.366-1.9,6.808-1.509s4.187,1.411,5.45,3.276A4.678,4.678,0,0,1,365.663,212.72Z"
                transform="translate(-336.274 -114.061)" />
            <path fill="#FFC48E"
                d="M385.108,201.767c-.663,2.535-2.633,4.356-4.991,4.477-2.7.14-5.335-1.615-6.29-4.16s-.333-5.285,1.75-6.881c1.715-1.546,4.366-1.9,6.808-1.509s4.187,1.411,5.45,3.276A4.677,4.677,0,0,1,385.108,201.767Z"
                transform="translate(-343.696 -113.056)" />
            <path fill="#FFC48E"
                d="M372.109,200.049c-.675,2.535-2.646,4.356-5.007,4.477-2.7.14-5.335-1.615-6.29-4.16s-.333-5.285,1.75-6.881c1.715-1.546,4.366-1.9,6.808-1.509s4.187,1.411,5.45,3.276A4.678,4.678,0,0,1,372.109,200.049Z"
                transform="translate(-341.026 -112.547)" />
            <path fill="#FFC48E"
                d="M391.553,189.096c-.663,2.535-2.633,4.356-4.991,4.477-2.7.14-5.335-1.615-6.29-4.16s-.333-5.285,1.75-6.881c1.715-1.546,4.366-1.9,6.808-1.509s4.187,1.411,5.45,3.276A4.677,4.677,0,0,1,391.553,189.096Z"
                transform="translate(-350.446 -111.542)" />
            <path fill="#FFC48E"
                d="M356.595,187.19c-.675,2.535-2.646,4.356-5.007,4.477-2.7.14-5.335-1.615-6.29-4.16s-.333-5.285,1.75-6.881c1.715-1.546,4.366-1.9,6.808-1.509s4.187,1.411,5.45,3.276A4.677,4.677,0,0,1,356.595,187.19Z"
                transform="translate(-325.413 -110.964)" />
            <path fill="#FFC48E"
                d="M380.142,207.408c-.663,2.535-2.633,4.356-4.991,4.477-2.7.14-5.335-1.615-6.29-4.16s-.333-5.285,1.75-6.881c1.715-1.546,4.366-1.9,6.808-1.509s4.187,1.411,5.45,3.276A4.677,4.677,0,0,1,380.142,207.408Z"
                transform="translate(-339.838 -114.569)" />
            <path fill="#FFC48E"
                d="M367.143,205.69c-.675,2.535-2.646,4.356-5.007,4.477-2.7.14-5.335-1.615-6.29-4.16s-.333-5.285,1.75-6.881c1.715-1.546,4.366-1.9,6.808-1.509s4.187,1.411,5.45,3.276A4.678,4.678,0,0,1,367.143,205.69Z"
                transform="translate(-337.168 -114.06)" />
            <path fill="#FFC48E"
                d="M386.588,194.737c-.663,2.535-2.633,4.356-4.991,4.477-2.7.14-5.335-1.615-6.29-4.16s-.333-5.285,1.75-6.881c1.715-1.546,4.366-1.9,6.808-1.509s4.187,1.411,5.45,3.276A4.677,4.677,0,0,1,386.588,194.737Z"
                transform="translate(-344.589 -113.056)" />
            <path fill="#FFC48E"
                d="M353.139,192.831c-.675,2.535-2.646,4.356-5.007,4.477-2.7.14-5.335-1.615-6.29-4.16s-.333-5.285,1.75-6.881c1.715-1.546,4.366-1.9,6.808-1.509s4.187,1.411,5.45,3.276A4.677,4.677,0,0,1,353.139,192.831Z"
                transform="translate(-326.556 -110.978)" />
            <path fill="#FFC48E"
                d="M376.686,213.049c-.663,2.535-2.633,4.356-4.991,4.477-2.7.14-5.335-1.615-6.29-4.16s-.333-5.285,1.75-6.881c1.715-1.546,4.366-1.9,6.808-1.509s4.187,1.411,5.45,3.276A4.677,4.677,0,0,1,376.686,213.049Z"
                transform="translate(-338.981 -114.573)" />
            <path fill="#FFC48E"
                d="M363.687,211.331c-.675,2.535-2.646,4.356-5.007,4.477-2.7.14-5.335-1.615-6.29-4.16s-.333-5.285,1.75-6.881c1.715-1.546,4.366-1.9,6.808-1.509s4.187,1.411,5.45,3.276A4.678,4.678,0,0,1,363.687,211.331Z"
                transform="translate(-336.311 -114.064)" />
            <path fill="#FFC48E"
                d="M383.132,200.378c-.663,2.535-2.633,4.356-4.991,4.477-2.7.14-5.335-1.615-6.29-4.16s-.333-5.285,1.75-6.881c1.715-1.546,4.366-1.9,6.808-1.509s4.187,1.411,5.45,3.276A4.677,4.677,0,0,1,383.132,200.378Z"
                transform="translate(-343.732 -113.059)" />
            <path fill="#FFC48E"
                d="M370.133,198.66c-.675,2.535-2.646,4.356-5.007,4.477-2.7.14-5.335-1.615-6.29-4.16s-.333-5.285,1.75-6.881c1.715-1.546,4.366-1.9,6.808-1.509s4.187,1.411,5.45,3.276A4.678,4.678,0,0,1,370.133,198.66Z"
                transform="translate(-342.062 -112.55)" />
            <path fill="#FFC48E"
                d="M389.578,187.707c-.663,2.535-2.633,4.356-4.991,4.477-2.7.14-5.335-1.615-6.29-4.16s-.333-5.285,1.75-6.881c1.715-1.546,4.366-1.9,6.808-1.509s4.187,1.411,5.45,3.276A4.677,4.677,0,0,1,389.578,187.707Z"
                transform="translate(-351.483 -111.545)" />
            <path fill="#FFC48E"
                d="M354.62,185.801c-.675,2.535-2.646,4.356-5.007,4.477-2.7.14-5.335-1.615-6.29-4.16s-.333-5.285,1.75-6.881c1.715-1.546,4.366-1.9,6.808-1.509s4.187,1.411,5.45,3.276A4.677,4.677,0,0,1,354.62,185.801Z"
                transform="translate(-326.45 -110.967)" />
            <path fill="#FFC48E"
                d="M378.167,206.019c-.663,2.535-2.633,4.356-4.991,4.477-2.7.14-5.335-1.615-6.29-4.16s-.333-5.285,1.75-6.881c1.715-1.546,4.366-1.9,6.808-1.509s4.187,1.411,5.45,3.276A4.677,4.677,0,0,1,378.167,206.019Z"
                transform="translate(-338.875 -114.572)" />
            <path fill="#FFC48E"
                d="M365.168,204.301c-.675,2.535-2.646,4.356-5.007,4.477-2.7.14-5.335-1.615-6.29-4.16s-.333-5.285,1.75-6.881c1.715-1.546,4.366-1.9,6.808-1.509s4.187,1.411,5.45,3.276A4.678,4.678,0,0,1,365.168,204.301Z"
                transform="translate(-336.205 -114.063)" />
            <path fill="#FFC48E"
                d="M384.613,193.348c-.663,2.535-2.633,4.356-4.991,4.477-2.7.14-5.335-1.615-6.29-4.16s-.333-5.285,1.75-6.881c1.715-1.546,4.366-1.9,6.808-1.509s4.187,1.411,5.45,3.276A4.677,4.677,0,0,1,384.613,193.348Z"
                transform="translate(-344.626 -113.058)" />
            <path fill="#FFC48E"
                d="M351.165,191.442c-.675,2.535-2.646,4.356-5.007,4.477-2.7.14-5.335-1.615-6.29-4.16s-.333-5.285,1.75-6.881c1.715-1.546,4.366-1.9,6.808-1.509s4.187,1.411,5.45,3.276A4.677,4.677,0,0,1,351.165,191.442Z"
                transform="translate(-317.593 -110.98)" />
            <path fill="#FFC48E"
                d="M374.712,211.66c-.663,2.535-2.633,4.356-4.991,4.477-2.7.14-5.335-1.615-6.29-4.16s-.333-5.285,1.75-6.881c1.715-1.546,4.366-1.9,6.808-1.509s4.187,1.411,5.45,3.276A4.677,4.677,0,0,1,374.712,211.66Z"
                transform="translate(-337.017 -114.575)" />
            <path fill="#FFC48E"
                d="M361.713,209.942c-.675,2.535-2.646,4.356-5.007,4.477-2.7.14-5.335-1.615-6.29-4.16s-.333-5.285,1.75-6.881c1.715-1.546,4.366-1.9,6.808-1.509s4.187,1.411,5.45,3.276A4.678,4.678,0,0,1,361.713,209.942Z"
                transform="translate(-335.347 -114.066)" />
            <path fill="#FFC48E"
                d="M381.158,198.989c-.663,2.535-2.633,4.356-4.991,4.477-2.7.14-5.335-1.615-6.29-4.16s-.333-5.285,1.75-6.881c1.715-1.546,4.366-1.9,6.808-1.509s4.187,1.411,5.45,3.276A4.677,4.677,0,0,1,381.158,198.989Z"
                transform="translate(-343.768 -113.061)" />
            <path fill="#FFC48E"
                d="M368.159,197.271c-.675,2.535-2.646,4.356-5.007,4.477-2.7.14-5.335-1.615-6.29-4.16s-.333-5.285,1.75-6.881c1.715-1.546,4.366-1.9,6.808-1.509s4.187,1.411,5.45,3.276A4.678,4.678,0,0,1,368.159,197.271Z"
                transform="translate(-342.098 -112.552)" />
            <path fill="#FFC48E"
                d="M387.604,186.318c-.663,2.535-2.633,4.356-4.991,4.477-2.7.14-5.335-1.615-6.29-4.16s-.333-5.285,1.75-6.881c1.715-1.546,4.366-1.9,6.808-1.509s4.187,1.411,5.45,3.276A4.677,4.677,0,0,1,387.604,186.318Z"
                transform="translate(-351.518 -111.547)" />
            <path fill="#FFC48E"
                d="M352.646,184.412c-.675,2.535-2.646,4.356-5.007,4.477-2.7.14-5.335-1.615-6.29-4.16s-.333-5.285,1.75-6.881c1.715-1.546,4.366-1.9,6.808-1.509s4.187,1.411,5.45,3.276A4.677,4.677,0,0,1,352.646,184.412Z"
                transform="translate(-324.485 -110.969)" />
        </g>
    </g>
</svg>

  