<svg xmlns="http://www.w3.org/2000/svg" xmlns:xlink="http://www.w3.org/1999/xlink" width="335" height="233.31" viewBox="0 0 335 233.31"><defs><style>.a{fill:#ffed63;}.b{fill:#ff616e;}.b,.e,.g{opacity:0.1;}.c{fill:url(#a);}.d{fill:#444176;}.f{fill:#565387;}.h{fill:#ced2df;}.i{fill:#88455e;}.j{fill:#ec8c9c;}.k{fill:#ebf1f6;}.l{fill:url(#b);}.m{fill:url(#c);}.n{fill:#ffbdc6;}.o{fill:#7679b4;}.p{fill:#a66477;}.q{fill:#f2f1f2;}.r{fill:#565388;}.s{fill:url(#d);}.t{fill:#493545;}.u{opacity:0.05;}.v{fill:#3e3d77;}.w{fill:#c77485;}.x{fill:#ffaac4;}.y{fill:#ebeaec;}.z{fill:none;stroke:#535461;stroke-miterlimit:10;stroke-width:2px;}.aa{fill:#259164;}.ab{fill:#dee3f3;opacity:0.5;}</style><linearGradient id="a" x1="0.5" y1="1" x2="0.5" gradientUnits="objectBoundingBox"><stop offset="0" stop-color="gray" stop-opacity="0.251"/><stop offset="0.54" stop-color="gray" stop-opacity="0.122"/><stop offset="1" stop-color="gray" stop-opacity="0.102"/></linearGradient><linearGradient id="b" x1="0.495" y1="1.014" x2="0.495" y2="0" xlink:href="#a"/><linearGradient id="c" x1="0.5" y1="1" x2="0.5" y2="0" xlink:href="#a"/><linearGradient id="d" x1="0.5" y1="1" x2="0.5" y2="0" xlink:href="#a"/></defs><g transform="translate(0.02 -0.02)"><circle class="a" cx="16.397" cy="16.397" r="16.397" transform="translate(17.142 6.905)"/><path class="b" d="M177.766,175.921c6.885,15.55-1.9,33.457-12.235,46.941-3.46,4.522-7.28,9.262-7.759,14.933-.578,6.938,4.12,13.314,9.692,17.483a40.811,40.811,0,0,0,36.145,6.112c10.454-3.312,19.243-10.793,29.789-13.808,17.635-5.051,36.328,3.322,51.431,13.755,10.69,7.375,22.139,16.362,35.027,14.782,9.068-1.111,16.764-7.477,21.987-14.972,2.522-3.619,4.716-7.675,8.387-10.115a21,21,0,0,1,7.311-2.772c23.416-5,48.267,7.209,71.372.928,15.607-4.232,28.05-16.577,35.788-30.78s11.35-30.24,14.358-46.129c2.137-11.286,3.911-23.479-1-33.859-5.2-10.99-17.233-17.653-29.327-18.9s-24.223,2.2-35.365,7.057c-13.921,6.088-27.567,14.609-42.761,14.637-10.348.021-20.217-3.95-30.11-6.98-16.542-5.061-33.743-7.576-50.884-9.9-16.411-2.222-32.984-4.289-49.494-2.977-11.681.928-22,5.393-33.334,7.46-7.389,1.347-14.813.353-22.065,2.61-8.93,2.793-18.115,9.265-18.608,19.458C165.644,160.589,174.115,167.672,177.766,175.921Z" transform="translate(-146.23 -119.24)"/><path class="c" d="M543.553,273.735c-1.506-3.926-5.389-13.152-7.946-11.322-3.231,2.314,3.231,12.535,3.231,12.535.183,1.876-3.449,5.781-5.4,7.728v-.243a.848.848,0,0,1-.085.212l-.162-.088a1.057,1.057,0,0,1-.229.42,4.12,4.12,0,0,0-.018-.42c-.374,1.584-6.9,3.59-6.9,3.59h-.48c-1.813,0-6.532-.409-8.719-3.908a19.348,19.348,0,0,0-4.278-4.991,3.644,3.644,0,0,0-2.028-.769,26.094,26.094,0,0,1-11.911-4.1l-.18-.123-.039.113c-.229-.328-.451-.677-.66-1.037h0l-.106-.194a8.86,8.86,0,0,0,4.885-7.879v-.183a6.035,6.035,0,0,0,.811-3.023V259l1.379-1.227a5.672,5.672,0,0,0,1.6-1.926,2.284,2.284,0,0,0,.169-.988,1.711,1.711,0,0,0-.649-1.531c-1.058-.73-2.822,0-3.587-1.016-.353-.459-.289-1.083-.462-1.622a2.9,2.9,0,0,0-2.8-1.707,12.083,12.083,0,0,0-3.428.73,20.129,20.129,0,0,1-7.3.684,4.768,4.768,0,0,0-2,.071,2.755,2.755,0,0,0-1.622,1.887,4.434,4.434,0,0,0-.155.966,6.081,6.081,0,0,0-1.531,4.024v2.712A6.077,6.077,0,0,0,484.43,264a8.817,8.817,0,0,0,3.693,6.433v.215l.046.028a14.586,14.586,0,0,1-.388,2.494v-.18a25.491,25.491,0,0,1-10.228,2.691h-.582a3.939,3.939,0,0,0-2.822,1.058c-1.566,1.474-4.31,3.806-6,3.806-.353,0-9.255,1.739-10.729,2.028l-2.755-2.7-.085.159-.162-.159a6.7,6.7,0,0,0-.9.13,21.348,21.348,0,0,1-4.885-10.775s6.091-6.938,3.851-13.4c-1.912-5.509-7.177,6.3-8.673,9.858a2.843,2.843,0,0,0-.092,1.957l4.948,15.949a7.481,7.481,0,0,0-.391,3.88h-.056l3.6,4.624a19.032,19.032,0,0,0,6.955,1.136,24.314,24.314,0,0,0,9.078-1.742h.836l-.159.06h4.292l2.73,8.257c-.092.751-1.411,11.237-2.469,13.582a5.894,5.894,0,0,0-.416,2.469,18.849,18.849,0,0,0,.787,4.779l2.391-.088-.092.187a124.479,124.479,0,0,0-7.407,18.46l-3.481,7.054,2.61,31.637h.106l.2.032h0c.282.042.705.106,1.263.176l-.2.353-5.753,9.523s-4.1,8.4,4.973,6.814c0,0,3.354-.973,4.723-6.7l5.968-5.6s.279-3.717-1.411-5.2c-.106-1.718-.374-6.733.039-7.939.5-1.46-2.116-18.252-2.116-18.252s9.445-19.592,15.166-20.079a3.135,3.135,0,0,1,1.238.162c4.7,1.531,10.4,12.9,12.073,16.436h0l.078.162v.032l.063.138v.039l.056.12v.032l.049.109v.025l.042.088v.035l.032.067v.028l.021.049v.06h0l.018.042.744,22.026h0l.074.039h.035l-.063.455-.324,2.275s4.1,8.641,3.851,9.734,2.733,5.477,6.959,4.261,1.711-8.077,1.711-8.077l-4.07-8.387-.18-.374a8,8,0,0,0,1.143-.85s-1.242-9,0-10.951,1.615-10.831,1.615-10.831-.871-6.084-2.363-8.761L507,316.888c1.873,1.742,3.33,2.423,4.546,2.377h.2a3.037,3.037,0,0,0,1.531-.381,4.314,4.314,0,0,0,.705-.5,1.114,1.114,0,0,0,.116-.116h0c1.739-1.46-1.989-7.181-4.1-10.581-2.035-3.28.769-12.193.98-12.856a3.365,3.365,0,0,1,.6-.353,3.722,3.722,0,0,1,1.383-.3c2.025.071,4.514,1.234,7.6,1.82a35.842,35.842,0,0,0,6.486.5h.127c.864,0,1.647-.018,2.282-.042a3.856,3.856,0,0,0,1.658-.448h0a5.005,5.005,0,0,0,1.178-.952l5.41-6.112-.141.067a3.041,3.041,0,0,0,0-2.151l5.717-9.876a3.756,3.756,0,0,0,.279-3.255Z" transform="translate(-331.277 -203.207)"/><path class="d" d="M515.493,614.4l-5.76,5.52c-1.319,5.643-4.56,6.6-4.56,6.6-8.758,1.559-4.8-6.7-4.8-6.7l5.555-9.4.684-1.16s3.961-1.2,6.6-.48a2.257,2.257,0,0,1,.9.487C515.765,610.7,515.493,614.4,515.493,614.4Z" transform="translate(-367.451 -435.957)"/><path class="d" d="M626.429,605.857c-4.081,1.2-6.959-3.118-6.7-4.2S616,592.07,616,592.07l.31-2.243.289-2.077,6.7.48.631,1.326,3.929,8.271S630.51,604.658,626.429,605.857Z" transform="translate(-442.873 -422.494)"/><path class="e" d="M526.013,610.171c-.631,1.083-5.749.536-8.243.2l.684-1.16s3.961-1.2,6.6-.48a2.257,2.257,0,0,1,.9.487C525.988,609.8,526.013,610.171,526.013,610.171Z" transform="translate(-379.289 -435.924)"/><path class="e" d="M624.5,589.536a7.76,7.76,0,0,1-7.636.272l.289-2.077,6.7.48Z" transform="translate(-443.43 -422.481)"/><path class="f" d="M554.2,473.593c-1.2,1.919,0,10.8,0,10.8-3.961,3.6-8.638.959-8.638.959l-.705-21.716s-7.8-17.878-13.318-17.4-14.637,19.8-14.637,19.8,2.518,16.556,2.039,17.988,0,8.4,0,8.4c-.839,1.439-9.6,0-9.6,0l-2.518-31.2,3.344-6.962a123.426,123.426,0,0,1,7.142-18.2c.97-2.035,1.619-3.277,1.619-3.277l6.384-1.33,20.721-4.3,7.445,27.1c1.439,2.638,2.278,8.638,2.278,8.638S555.4,471.674,554.2,473.593Z" transform="translate(-372.207 -318.544)"/><g class="g" transform="translate(134.608 108.602)"><path d="M595.036,520.347l-.705-21.716s-7.8-17.878-13.318-17.4a3.005,3.005,0,0,0-.723.162c5.382,1.788,12.122,17.236,12.122,17.236l.705,21.716a8.465,8.465,0,0,0,4.772.871,8.489,8.489,0,0,1-2.853-.871Z" transform="translate(-554.367 -462.141)"/><path d="M511.227,492.4l-2.518-31.2,3.358-6.973a123.421,123.421,0,0,1,7.142-18.2c.97-2.035,1.619-3.277,1.619-3.277l6.384-1.33,18.915-3.933-.1-.377-20.732,4.31-6.384,1.33s-.649,1.242-1.619,3.277a123.252,123.252,0,0,0-7.142,18.2l-3.358,6.959,2.518,31.2a45.061,45.061,0,0,0,7.618.614A56.65,56.65,0,0,1,511.227,492.4Z" transform="translate(-506.79 -427.12)"/></g><path class="h" d="M467.04,338.21s-6.839.353-5.879,7.558l1.919.24,2.878-3.118,1.439-2.638v-.6Z" transform="translate(-342.586 -260.966)"/><path class="e" d="M467.04,338.21s-6.839.353-5.879,7.558l1.919.24,2.878-3.118,1.439-2.638v-.6Z" transform="translate(-342.586 -260.966)"/><path class="h" d="M693.069,345.69s5.643,3,4.2,6.479l-1.8.705-2.4-1.319-.353-3.118.24-2.158Z" transform="translate(-492.534 -265.808)"/><path class="e" d="M693.069,345.69s5.643,3,4.2,6.479l-1.8.705-2.4-1.319-.353-3.118.24-2.158Z" transform="translate(-492.534 -265.808)"/><rect class="i" width="19.677" height="14.877" rx="7.438" transform="translate(152.063 48.925)"/><path class="j" d="M458.808,293.091l-4.2,6.7-.353-1.192-5.707-18.594a2.861,2.861,0,0,1,.088-1.929c1.443-3.506,6.529-15.166,8.373-9.717,2.159,6.349-3.721,13.2-3.721,13.2a21.135,21.135,0,0,0,5.019,10.983C458.617,292.9,458.808,293.091,458.808,293.091Z" transform="translate(-334.399 -214.828)"/><path class="j" d="M691.16,310.1s6.6-6.239,6.349-8.758c0,0-6.239-10.077-3.118-12.344,2.469-1.806,6.218,7.294,7.671,11.163a3.774,3.774,0,0,1-.25,3.174L693.925,317.3Z" transform="translate(-491.525 -228.961)"/><path class="j" d="M564.813,299.914s1.2,7.678-2.278,10.56,9.96,2.864,9.96,2.864l4.8-4.441s-5.52-5.16-3.841-9Z" transform="translate(-407.893 -236.168)"/><path class="e" d="M551.19,323.89a8.412,8.412,0,0,0,10.316-.48l8.4,17.4-.48,21.236s-17.4,9-24.6,3.481-1.2-8.4-1.2-8.4l-1.679-16.316,1.8-10.56s3.238-5.04,3.481-5.04S551.19,323.89,551.19,323.89Z" transform="translate(-394.51 -251.386)"/><path class="k" d="M551.2,323.21a8.4,8.4,0,0,0,10.32-.48l8.4,17.4-.48,21.236s-17.4,9-24.6,3.481-1.2-8.4-1.2-8.4l-1.679-16.316,1.8-10.56s3.238-5.04,3.481-5.04S551.2,323.21,551.2,323.21Z" transform="translate(-394.517 -250.946)"/><path class="e" d="M499.785,319a22.265,22.265,0,0,1-10.2,2.649,3.76,3.76,0,0,0-2.712,1.037c-1.513,1.453-4.162,3.753-5.8,3.753-.353,0-10.56,2.039-10.56,2.039l-2.7-2.7s-4.021,7.858-5.939,7.5l3.481,4.56s6.6,2.878,15.237-.6h5.04l2.638,8.158s-1.319,11.039-2.4,13.438.353,7.079.353,7.079l9.477-.353s.48-4.68,1.2-5.291-2.518-21.236-2.518-21.236-2.159-11.639,5.76-15.836Z" transform="translate(-343.105 -248.532)"/><path class="e" d="M544.559,439.38a31.308,31.308,0,0,0-.744,4.328l-7.255.275c.97-2.035,1.619-3.277,1.619-3.277Z" transform="translate(-391.452 -326.454)"/><path class="e" d="M469.513,340.084l-4.2,6.7-.353-1.192a31.016,31.016,0,0,0,4.067-6.063A7.108,7.108,0,0,0,469.513,340.084Z" transform="translate(-345.105 -261.821)"/><path class="h" d="M499.326,319a23.844,23.844,0,0,1-10.443,2.649,3.759,3.759,0,0,0-2.712,1.037c-1.513,1.453-4.162,3.753-5.8,3.753-.353,0-10.56,2.039-10.56,2.039l-2.709-2.7s-4.021,7.858-5.939,7.5l3.481,4.56s6.6,2.878,15.237-.6h5.04l2.638,8.154s-1.319,11.039-2.4,13.438.353,7.079.353,7.079l9.477-.353s.48-4.68,1.2-5.29-2.518-21.236-2.518-21.236-2.159-11.639,5.76-15.836Z" transform="translate(-342.645 -248.532)"/><path class="e" d="M595.594,316.94a23.348,23.348,0,0,0,11.431,4.162,3.474,3.474,0,0,1,1.957.758,18.943,18.943,0,0,1,4.13,4.938c2.638,4.321,9.117,3.841,9.117,3.841s6.3-1.979,6.659-3.527c0,0,.18,8.465,4.141,6.419l-5.209,6a3.675,3.675,0,0,1-2.628,1.266,38.623,38.623,0,0,1-8.229-.455c-4.32-.839-7.438-2.878-9.717-1.079,0,0-3,9.357-.959,12.718s5.643,9,3.961,10.44-3.721,1.319-7.079-2.159-3.721-9.357-3.721-9.357l.839-15.117s-3.238-11.4-6.349-13.678Z" transform="translate(-428.594 -247.198)"/><path class="e" d="M634.36,333.593l-5.223,6.028a3.671,3.671,0,0,1-1.259.938h0a3.657,3.657,0,0,1-1.361.321,38.167,38.167,0,0,1-8.228-.455c-4.042-.786-7.033-2.621-9.269-1.383a3.278,3.278,0,0,0-.451.3s-3,9.357-.959,12.718,5.643,9,3.961,10.44a3.878,3.878,0,0,1-.938.61c-1.51.681-3.382.092-6.141-2.769-3.358-3.481-3.721-9.357-3.721-9.357l.839-15.117s-3.238-11.4-6.349-13.678l1.372-4.92a24.909,24.909,0,0,0,11.5,4.042,3.474,3.474,0,0,1,1.957.758,18.964,18.964,0,0,1,4.13,4.938c2.638,4.321,9.117,3.841,9.117,3.841a35.013,35.013,0,0,0,4.539-1.806h0a6.92,6.92,0,0,0,2.116-1.411,1.06,1.06,0,0,0,.229-.423S630.4,335.632,634.36,333.593Z" transform="translate(-429.448 -247.412)"/><path class="h" d="M633.661,333.506l-5.22,6.035a3.671,3.671,0,0,1-1.016.818h0a3.661,3.661,0,0,1-1.6.441,38.163,38.163,0,0,1-8.229-.455c-3.9-.758-6.821-2.494-9.026-1.5a3.262,3.262,0,0,0-.705.42s-3,9.357-.959,12.718,5.643,9,3.961,10.44a4.158,4.158,0,0,1-.705.49c-1.552.857-3.471.353-6.38-2.649-3.358-3.481-3.721-9.357-3.721-9.357l.839-15.117s-3.238-11.4-6.349-13.678l1.439-5.16.173.12a24.909,24.909,0,0,0,11.5,4.042,3.474,3.474,0,0,1,1.958.758,18.963,18.963,0,0,1,4.13,4.938c2.638,4.321,9.117,3.841,9.117,3.841a35.024,35.024,0,0,0,4.539-1.806h0c1.09-.557,1.979-1.167,2.116-1.725v.3C629.626,328.878,630.155,335.308,633.661,333.506Z" transform="translate(-428.989 -247.205)"/><path class="e" d="M578.667,300.45H569.85a21.57,21.57,0,0,1,.166,4.232,9.064,9.064,0,0,0,9.318.67C578.488,303.786,577.973,302.009,578.667,300.45Z" transform="translate(-413 -236.524)"/><circle class="j" cx="8.758" cy="8.758" r="8.758" transform="translate(153.442 52.107)"/><path class="e" d="M567.272,264.817a9.35,9.35,0,0,1,2.917-.268c.875.176,1.619.779,2.494.963,1.686.353,3.252-.889,4.525-2.046l2.751-2.5a5.614,5.614,0,0,0,1.552-1.9,1.9,1.9,0,0,0-.466-2.243c-1.005-.705-2.737,0-3.464-1a5.23,5.23,0,0,1-.448-1.6,2.807,2.807,0,0,0-2.7-1.682,11.951,11.951,0,0,0-3.308.705,19.047,19.047,0,0,1-7.054.674,4.507,4.507,0,0,0-1.929.067,2.7,2.7,0,0,0-1.566,1.859c-.543,1.919.385,5.012,1.316,6.729S565.413,265.046,567.272,264.817Z" transform="translate(-406.892 -205.511)"/><path class="i" d="M567.272,264.137a9.348,9.348,0,0,1,2.917-.268c.875.176,1.619.779,2.494.963,1.686.353,3.252-.889,4.525-2.046l2.751-2.5a5.614,5.614,0,0,0,1.552-1.9,1.9,1.9,0,0,0-.466-2.243c-1.005-.705-2.737,0-3.464-1a5.23,5.23,0,0,1-.448-1.6,2.807,2.807,0,0,0-2.7-1.682,11.951,11.951,0,0,0-3.308.705,19.046,19.046,0,0,1-7.054.674,4.508,4.508,0,0,0-1.929.067,2.7,2.7,0,0,0-1.566,1.859c-.543,1.919.385,5.012,1.316,6.729S565.413,264.348,567.272,264.137Z" transform="translate(-406.892 -205.071)"/><path class="e" d="M536.55,394a4.945,4.945,0,0,1,2.878,1.439A5.17,5.17,0,0,0,542.066,397" transform="translate(-391.445 -297.079)"/><path class="e" d="M487.435,349.09s1.566,3.5.6,3.848-.6,2.878-.6,2.878" transform="translate(-359.609 -268.009)"/><g class="g" transform="translate(128.256 70.525)"><path d="M488.889,333.381s10.2-2.039,10.549-2.039c1.644,0,4.289-2.3,5.8-3.753a3.7,3.7,0,0,1,1.644-.913h-.131a3.759,3.759,0,0,0-2.712,1.037c-1.513,1.453-4.162,3.753-5.8,3.753-.286,0-6.811,1.294-9.459,1.82Z" transform="translate(-488.78 -324.024)"/><path d="M555.066,319.608v-.448a25.458,25.458,0,0,1-7.816,2.5A24.153,24.153,0,0,0,555.066,319.608Z" transform="translate(-526.628 -319.16)"/><path d="M522.747,399.194s-1.439-4.68-.353-7.079,2.4-13.438,2.4-13.438l-2.631-8.158h-5.054l-.307.12h4.144l2.628,8.161s-1.319,11.039-2.4,13.438.353,7.079.353,7.079l9.477-.353v-.074Z" transform="translate(-506.917 -352.405)"/></g><g class="g" transform="translate(171.19 86.308)"><path d="M621.317,420.538a4.162,4.162,0,0,1-.705.49c-1.552.857-3.471.353-6.38-2.649-2.666-2.762-3.442-7.054-3.65-8.68l-.071,1.241s.353,5.88,3.721,9.357c2.91,3.012,4.828,3.506,6.38,2.649a4.16,4.16,0,0,0,.705-.49c.5-.434.533-1.249.268-2.264A1.113,1.113,0,0,1,621.317,420.538Z" transform="translate(-610.51 -393.55)"/><path d="M653.566,364.083l-3.4,3.926a3.67,3.67,0,0,1-1.016.818h0a3.661,3.661,0,0,1-1.6.441,38.162,38.162,0,0,1-8.228-.455c-3.9-.758-6.821-2.494-9.026-1.5a3.263,3.263,0,0,0-.705.42s-1.936,6.045-1.64,10.161a39.681,39.681,0,0,1,1.64-8.243,3.263,3.263,0,0,1,.705-.42c2.208-.991,5.128.744,9.026,1.5a38.613,38.613,0,0,0,8.228.455,3.662,3.662,0,0,0,1.6-.441h0a3.67,3.67,0,0,0,1.016-.808l5.223-6.028a2.056,2.056,0,0,1-1.827.173Z" transform="translate(-621.781 -363.91)"/></g><path class="l" d="M265.74,486.89a.272.272,0,0,0,.321.042A1.094,1.094,0,0,1,265.74,486.89Z" transform="translate(-216.15 -357.207)"/><path class="m" d="M210.634,288.7c-.635-.183-1.541-.483-2.631-.864a13.8,13.8,0,0,0,2.437-4.91l-.092.035c.032-.109.063-.215.092-.328-2.091.85-4.405-.589-5.88-2.437s-2.469-4.141-4.084-5.841a18.693,18.693,0,0,0-2.166-1.866,2.994,2.994,0,0,0-1.57-.769c-.942-.028-1.679.9-2.585,1.167a3.527,3.527,0,0,1-1.8-.067c-2.338-.536-4.585-1.527-6.973-1.788a8.172,8.172,0,0,0-3.784.427c-1.2.455-1.746,1.361-2.716,2.088-1.058.779-3.125.762-4.356.9a31.209,31.209,0,0,1-4.5.187,10.535,10.535,0,0,0-2.589.1c-1.788.391-3.224,1.813-4.564,3.174a2.353,2.353,0,0,0-.755,1.182,1.493,1.493,0,0,0,0,.392,2.543,2.543,0,0,0,.18,1.04,13.755,13.755,0,0,0,1.732,3.446,9.95,9.95,0,0,1,1.5,2.448,4.75,4.75,0,0,1,.229,1.411,10.26,10.26,0,0,1-.159,1.517,19.047,19.047,0,0,1-1.16,4.038,7.336,7.336,0,0,0-.677,2.116,3.375,3.375,0,0,0,0,.451c-.088,2.328,2.261,4,2.716,6.317a3.771,3.771,0,0,1,.067.582,3.941,3.941,0,0,1-2.084,3.414c.106.042.215.078.324.113a2.928,2.928,0,0,1-.324.176,6.574,6.574,0,0,0,.677.219A15.732,15.732,0,0,0,161.707,311c-4.081,7.6-31.718,22.478-31.718,22.478l.409.233-.332.215c-2.391,1.591-8,6.229-2.931,12.094,0,0,3.961-6.25,6.737-8.913.123-.12.247-.229.353-.332a.811.811,0,0,1,.106.642L152.5,327.208s6.458-4.522,8.26-5.541a14.867,14.867,0,0,1,4.095-1.764l-.212.088a8.3,8.3,0,0,1,2.084-.3c3.217.049,6.7,2.405,7.848,11.734,1.538,12.493.825,14.746.332,15.053a.908.908,0,0,1-.18-.032.309.309,0,0,0,.049.035.948.948,0,0,1-.2-.035.282.282,0,0,0,.268.063.251.251,0,0,0,.2-.025h0a2.089,2.089,0,0,0,.243,0,2.593,2.593,0,0,1-.025.353c-.025,0-.145.067,0,.074h0c-.039.705-.035,1.471,0,2.271-1.6.088-3.2.183-4.585.268l.123-.66.056-.3c1.227-.1,2.391-.458,2.529-1.453.3-2.187-2.7-3.354-5.255-3.5s-17.868.875-17.868.875-2.3,2.973,4.987,3.88l.674.353a80.947,80.947,0,0,1,8.578,6.095l.257.2-.832.677c4.5,1.019,8.86,18.231,11.262,26.1s7.657,7.583,12.013,6.416c4.081-1.093,4.585-12.944,4.652-14.432v-.152l7.259,8.966.55.681q.317.166.628.31c5.5,2.614,11.565-2.4,9.84-8.112-1.746-5.76-4.455-14.277-6.26-17.878-1.513-3.016-3.467-8.024-4.652-11.159a3.765,3.765,0,0,0,.448-.215s-.028-.141-.074-.4l.074-.039a108.14,108.14,0,0,1-1.841-15.519v-.561c1.312-.3,2.144-.416,2.144-.416l.025-.282-.152.032.73-8.355s2.681-5.7.628-8.077a4.987,4.987,0,0,1-1.2-2.469c-.353-2.183,0-5.827,4.779-8.853,7.357-4.666,10.228-8.465,10.228-8.465S215.138,290.03,210.634,288.7Zm-14.612,5.8V290.64c1.365-.067,2.758.092,4.13,0a10.449,10.449,0,0,0,1.993-.335l.332.229a36.328,36.328,0,0,1-6.454,3.968Zm-20.862,60.537c.54.374,1.083.762,1.615,1.153.332,1.9.624,3.248.645,3.344A26.4,26.4,0,0,0,175.159,355.039Z" transform="translate(-125.1 -217.445)"/><path class="n" d="M269.293,500.32l-.317,1.725-.243,1.319-.444,2.412-4.31,3.016s-.388-.332-1.03-.857a75.546,75.546,0,0,0-8.2-6,9.169,9.169,0,0,0-2.254-1.04Z" transform="translate(-207.573 -365.9)"/><path class="e" d="M269.286,500.32l-.317,1.725a13.4,13.4,0,0,1-2.843-.145l-10.055.145c-.476-.028-.921-.067-1.337-.109a9.17,9.17,0,0,0-2.254-1.04Z" transform="translate(-207.566 -365.9)"/><path class="o" d="M259.723,495.255s5.03.861,5.315-1.294-2.585-3.291-5.022-3.453-17.1.868-17.1.868-2.585,3.446,6.751,4.021Z" transform="translate(-201.164 -359.538)"/><path class="e" d="M269.293,500.32l-.317,1.725-.243,1.319-.444,2.412-4.31,3.016s-.388-.332-1.03-.857a75.546,75.546,0,0,0-8.2-6,9.169,9.169,0,0,0-2.254-1.04Z" transform="translate(-207.573 -365.9)"/><path class="e" d="M269.286,500.32l-.317,1.725a13.4,13.4,0,0,1-2.843-.145l-10.055.145c-.476-.028-.921-.067-1.337-.109a9.17,9.17,0,0,0-2.254-1.04Z" transform="translate(-207.566 -365.9)"/><path class="e" d="M259.723,495.255s5.03.861,5.315-1.294-2.585-3.291-5.022-3.453-17.1.868-17.1.868-2.585,3.446,6.751,4.021Z" transform="translate(-201.164 -359.538)"/><rect class="p" width="26.287" height="31.172" transform="translate(43.259 64.892)"/><rect class="e" width="26.287" height="31.172" transform="translate(43.259 64.892)"/><path class="n" d="M142.055,449.749a4.211,4.211,0,0,0-1.6,1.132c-2.656,2.624-6.444,8.779-6.444,8.779-4.853-5.777.518-10.345,2.822-11.914.557-.381.931-.585.931-.585Z" transform="translate(-129.608 -331.49)"/><path class="n" d="M273.745,331.09s1.294,9.05,5.745,11.205-5.745,6.176-5.745,6.176L259.81,343.3s7.9-2.585,6.32-10.2Z" transform="translate(-212.311 -256.358)"/><path class="n" d="M226.163,485.45l-.317,1.725-.243,1.319-.444,2.412-4.31,3.016s-.388-.332-1.03-.857a75.546,75.546,0,0,0-8.2-6,9.168,9.168,0,0,0-2.254-1.04Z" transform="translate(-179.655 -356.275)"/><path class="e" d="M226.156,485.45l-.317,1.725A13.4,13.4,0,0,1,223,487.03l-10.055.145c-.476-.028-.921-.067-1.337-.109a9.174,9.174,0,0,0-2.254-1.04Z" transform="translate(-179.648 -356.275)"/><path class="o" d="M216.547,480.4s5.029.861,5.315-1.294-2.585-3.3-5.029-3.446-17.1.861-17.1.861-2.585,3.446,6.751,4.021Z" transform="translate(-173.213 -349.926)"/><path class="e" d="M244.754,493.9l-.444,2.413L240,499.33s-.388-.332-1.03-.857l5.7-4.673Z" transform="translate(-198.821 -361.68)"/><path class="o" d="M272.17,515.059q-.3-.145-.6-.307l-.526-.67-6.941-8.817v.155c-.046,1.464-.547,13.138-4.448,14.214-4.165,1.15-9.195,1.435-11.491-6.32S241.7,488.606,237.39,487.6l6.391-5.245s4.232,4.938,5.961,9.692c-.063-.3-2.987-13.956-.575-16.369h20.971s3.231,9.22,5.46,13.791c1.728,3.548,4.321,11.935,6,17.61A6.746,6.746,0,0,1,272.17,515.059Z" transform="translate(-197.799 -349.951)"/><path class="e" d="M291.386,446.1c-3.234,1.915-17.455,1.136-22.09.825l-1.259-.092c-.138,0,.021-.078.021-.078l.13-1.3,3.446-8.761L290.095,426a15.972,15.972,0,0,0-.469,4.828A112.544,112.544,0,0,0,291.386,446.1Z" transform="translate(-217.6 -317.793)"/><path class="q" d="M291.107,444.907c-3.234,1.915-17.455,1.136-22.09.825l-1.259-.092h-.208l.229-.06,1.136-.3,2.441-9.77,18.46-10.7a15.973,15.973,0,0,0-.469,4.828A112.624,112.624,0,0,0,291.107,444.907Z" transform="translate(-217.321 -317.023)"/><path class="e" d="M289.735,429.566c-3.753.864-12.013,3.407-15.187,9.523-2.116,4.084-3.88,5.837-5.139,6.571l-1.259-.092.021-.078,1.136-.3,2.441-9.77,18.46-10.7A15.976,15.976,0,0,0,289.735,429.566Z" transform="translate(-217.71 -316.964)"/><path class="e" d="M146.5,447.17l4.31,2.585a4.211,4.211,0,0,0-1.6,1.132c-.353-1.058-2.617-2.511-3.64-3.132C146.127,447.375,146.5,447.17,146.5,447.17Z" transform="translate(-138.364 -331.496)"/><path class="e" d="M265.443,484.269a.257.257,0,0,1-.3-.039A1.036,1.036,0,0,0,265.443,484.269Z" transform="translate(-215.761 -355.485)"/><path class="r" d="M197.641,320.929a8.545,8.545,0,0,1-6.61-2.441s-11.491,3.3-15.371,10.775-30.311,22.121-30.311,22.121,4.585,2.585,4.165,3.88L166.9,345.209s6.176-4.455,7.9-5.46,11.205-7.181,13.216,9.625,0,14.813,0,14.813,2.874,1.005,7.054-7.054,17.1-9.911,17.1-9.911l.705-8.465s2.564-5.615.6-7.957a4.973,4.973,0,0,1-1.15-2.43c-.328-2.151,0-5.738,4.585-8.719,7.054-4.585,9.77-8.331,9.77-8.331s.145-2.73-4.165-4.021-21.836-8.331-21.836-8.331l-.575,2.441,13.791,9.77s-6.9,5.6-12.344,5.46C201.521,316.616,202.526,320.784,197.641,320.929Z" transform="translate(-138.221 -235.566)"/><path class="e" d="M285.411,335.787a28.221,28.221,0,0,1-.794-3.527L277,334.284a8.394,8.394,0,0,1-.173,4.391,8.19,8.19,0,0,0,8.581-2.892Z" transform="translate(-223.328 -257.115)"/><circle class="n" cx="8.19" cy="8.19" r="8.19" transform="translate(47.569 65.033)"/><path class="e" d="M254.665,273.867c2.271.257,4.433,1.234,6.67,1.763a3.294,3.294,0,0,0,1.725.067c.868-.268,1.573-1.178,2.469-1.15a2.6,2.6,0,0,1,1.5.758,18.025,18.025,0,0,1,2.07,1.838c1.541,1.675,2.5,3.933,3.908,5.753s3.626,3.238,5.626,2.4c-1.358,5.29-5.816,9.336-10.634,9.664-1.922.131-3.88-.268-5.753.3a5.035,5.035,0,0,1-1.453.353c-1.058,0-1.933-.984-2.6-1.94-1.566-2.25-2.822-4.8-4.585-6.853a3.748,3.748,0,0,0-2.092-1.446,3.873,3.873,0,0,0-2.314.649,10.985,10.985,0,0,0-3.386,2.349,4.7,4.7,0,0,0-1.143,4.13,10.09,10.09,0,0,1,.705,2.31c0,1.305-1.136,2.261-1.365,3.527a13.606,13.606,0,0,0-.056,1.608,6.561,6.561,0,0,1-2.43,4.264,3.067,3.067,0,0,0-1.111,1.541c-.092.448,0,.924-.06,1.379a2.5,2.5,0,0,1-2.3,1.852,6.666,6.666,0,0,1-3.449-.409,3.965,3.965,0,0,0,1.929-4.232c-.444-2.331-2.786-4-2.589-6.38a7.382,7.382,0,0,1,.649-2.1,19.2,19.2,0,0,0,1.107-3.978,6.74,6.74,0,0,0-.067-3.174A10.021,10.021,0,0,0,234.2,286.3a13.692,13.692,0,0,1-1.658-3.4,2.381,2.381,0,0,1-.159-1.122,2.324,2.324,0,0,1,.705-1.164c1.284-1.344,2.659-2.744,4.366-3.132a9.791,9.791,0,0,1,2.469-.1,29,29,0,0,0,4.306-.183c1.178-.138,3.174-.12,4.169-.889.928-.705,1.453-1.6,2.6-2.056A7.608,7.608,0,0,1,254.665,273.867Z" transform="translate(-194.553 -219.271)"/><path class="e" d="M308.48,513.76s4.74,9.336,3.3,12.21" transform="translate(-243.815 -374.6)"/><path class="e" d="M320.006,564.831l-6.941-8.818v.155s-.4-2.85.921-1.891c2.9,2.1,7.53,5.53,7.629,6.123S320.676,563.37,320.006,564.831Z" transform="translate(-246.746 -400.699)"/><g class="g" transform="translate(7.273 63.379)"><path d="M302.6,348.786s.585,2.427-1.309,3.64a3.253,3.253,0,0,0,2.956-3.756A9.187,9.187,0,0,1,302.6,348.786Z" transform="translate(-246.435 -331.116)"/><path d="M147.344,387.065s26.431-14.651,30.311-22.121c2.783-5.361,9.488-8.574,13.05-9.964-2.6.871-11.346,4.211-14.633,10.539-3.88,7.47-30.311,22.121-30.311,22.121Z" transform="translate(-145.76 -335.201)"/><path d="M307.514,315.431a31.48,31.48,0,0,0,8.8-4.892l-13.791-9.77.314-1.34-1.319-.529-.575,2.441,13.79,9.77A33.277,33.277,0,0,1,307.514,315.431Z" transform="translate(-246.208 -298.9)"/><path d="M319.83,436.614a34.171,34.171,0,0,1,5.407-1.365l.025-.279A36.594,36.594,0,0,0,319.83,436.614Z" transform="translate(-258.436 -386.978)"/><path d="M251.047,433.862h-.127a.257.257,0,0,1-.3-.039,1.059,1.059,0,0,0,.3.039c.473-.275,1.182-2.42-.3-14.835-1.587-13.254-7.816-12.214-11.226-10.69,3.485-.959,8.281-.13,9.646,11.265,1.485,12.415.776,14.563.3,14.835A3.174,3.174,0,0,0,251.047,433.862Z" transform="translate(-206.367 -369.177)"/><path d="M267.043,483.869a1.057,1.057,0,0,1-.3-.039A.257.257,0,0,0,267.043,483.869Z" transform="translate(-224.07 -418.605)"/></g><path class="p" d="M254.665,273.077c2.271.258,4.433,1.234,6.67,1.764a3.294,3.294,0,0,0,1.725.067c.868-.268,1.573-1.178,2.469-1.15a2.6,2.6,0,0,1,1.5.758,18.031,18.031,0,0,1,2.07,1.838c1.541,1.675,2.5,3.933,3.908,5.753s3.626,3.238,5.626,2.4c-1.358,5.29-5.816,9.336-10.634,9.664-1.922.13-3.88-.268-5.753.3a5.036,5.036,0,0,1-1.453.353c-1.058,0-1.933-.984-2.6-1.94-1.566-2.25-2.822-4.8-4.585-6.853a3.748,3.748,0,0,0-2.092-1.446,3.873,3.873,0,0,0-2.314.649,10.984,10.984,0,0,0-3.386,2.349,4.7,4.7,0,0,0-1.143,4.13,10.09,10.09,0,0,1,.705,2.31c0,1.3-1.136,2.261-1.365,3.527a13.607,13.607,0,0,0-.056,1.608,6.561,6.561,0,0,1-2.43,4.264,3.067,3.067,0,0,0-1.111,1.541c-.092.448,0,.924-.06,1.379a2.5,2.5,0,0,1-2.3,1.852,6.666,6.666,0,0,1-3.449-.409,3.965,3.965,0,0,0,1.929-4.232c-.444-2.331-2.786-4-2.589-6.38a7.381,7.381,0,0,1,.649-2.1,19.206,19.206,0,0,0,1.107-3.978,6.74,6.74,0,0,0-.067-3.174,10.022,10.022,0,0,0-1.432-2.412,13.692,13.692,0,0,1-1.658-3.4,2.381,2.381,0,0,1-.159-1.122,2.324,2.324,0,0,1,.705-1.164c1.284-1.344,2.659-2.744,4.366-3.132a9.789,9.789,0,0,1,2.469-.1,29.013,29.013,0,0,0,4.306-.183c1.178-.138,3.174-.12,4.169-.889.928-.705,1.453-1.6,2.6-2.056A7.608,7.608,0,0,1,254.665,273.077Z" transform="translate(-194.554 -218.759)"/><path class="s" d="M821.408,204.2h0v-.13a.3.3,0,0,0-.021-.134h-.056v-.293c-.141-3.27-4.663-10.228-6.476-8.2-1.587,1.785.808,6.3,2.028,8.331l.109.183-.06-.039s-5.047,15.053-5.643,15.639-4.751,12.422-10.228,13.755c-1.083.257-1.982.49-2.737.705l.06-.2a21.816,21.816,0,0,0,.963-3.527c.176-1.284,0-2.839-.649-3.464-.317-.31-.705-.353-.966-.846a3.909,3.909,0,0,1-.268-1.358L797,218.92l.324-.1c1.961-.628,3.862-2.116,4.084-4.12a2.123,2.123,0,0,1-.208.067,3.572,3.572,0,0,0,.06-.353c-1.647.649-3.174-1.058-4.761-1.823-2.613-1.28-5.6-.074-8.3.219-3.058.335-5.961-.935-9.086-.705-1.7.13-3.591,1.284-3.5,2.959a11.842,11.842,0,0,0,.973,2.582c.677,2.134-.829,4.275-2.148,6.095a9.073,9.073,0,0,0-1.848,4.056c-3.037-3.174-6.32-6.842-6.7-8.221L757.1,204.523s-.208.222-.543.55c-.053-.162-.116-.353-.187-.543-1.122-3.143-4.3-10.757-8.32-9.361s1.668,9.2,4.144,12.313l.353.43a1.114,1.114,0,0,1-.628-.028l9.8,16.806s1.781,3.217,3.414,4.091c0,0,12.172,15.346,12.32,18.414s5.474,11.255,5.474,11.255,1.781,13.3-1.337,15.639h.515q-.222.217-.455.476c-2.31,2.561-5.262,8.049-1.227,17.381,5.936,13.755,6.828,19.145,6.828,19.145s-11.286.586-13.508,1.023c-1.968.388-9.618.66-11.367.705-.624-.727-2.469-2.335-4.959,0-3.118,2.924-5.343,12.7-5.343,12.7s-1.189,7.893,2.822,5.844c0,0,4.751-6.578,6.084-6.871.663-.145,1.365-1.122,1.9-2.063l.028.018h0c.032,0,.162-.071.374-.155h0c.988-.391,3.707-1.333,5.851-.864a107.751,107.751,0,0,0,11.491.3c-1.192,2.857-3.329,10.228-3.329,10.228s-.892,6.874,2.07,6.592c2.116-.208,5.361-5.615,7.054-8.7,1.227-.9,4.744-4.123,7.343-3.88l17.515-6.722s4.155-2.338,1.929-10.084c-1.764-6.158-6.782-18.764-8.765-23.677h0l-.06-.127c-.48-1.189-.769-1.894-.769-1.894h0a28.986,28.986,0,0,1-1.591-6.952c-.018-.187-.032-.377-.046-.564a3.114,3.114,0,0,0,.688-.4s-1.633-16.513,0-18.27h0l.028-.032h0v-.021h0l.028-.035h0l.063-.081h0l.078-.1h0c.088-.116.194-.261.314-.437h0a12.107,12.107,0,0,0,2.176-8.183h0q-.032-.24-.078-.483h0a10.073,10.073,0,0,0-1.016-2.864,7.945,7.945,0,0,1-.13-1.132v-1a3.389,3.389,0,0,1,.053-.508v-.063a.631.631,0,0,1,.032-.194v-.081a.924.924,0,0,1,.042-.19v-.067c.021-.085.042-.169.071-.254v-.042q.032-.106.07-.208l.032-.081.07-.169.035-.085c.028-.063.06-.127.092-.19l.025-.053q.063-.116.134-.229l.039-.06.117-.166.056-.074.123-.148.056-.063c.063-.067.127-.134.2-.2,1.929-1.764,10.539-14.76,10.539-14.76s2.077-2.924,2.077-4.821C818.106,220.162,821.778,207.923,821.408,204.2ZM798.3,313.451c-.212-2-.423-4.486-.617-7.054l3.358,5.234S800.718,313.225,798.3,313.451Z" transform="translate(-527.446 -168.266)"/><path class="t" d="M774.8,524.948s-2.01-3.174-5.029-.286-5.171,12.5-5.171,12.5-1.15,7.759,2.73,5.745c0,0,4.585-6.465,5.89-6.751s2.73-3.88,2.73-3.88Z" transform="translate(-538.958 -380.872)"/><path class="t" d="M841.234,548.46s-2.73-1.294-3.591-.286-3.735,11.061-3.735,11.061-.861,6.61,2.01,6.32,7.9-10.637,7.9-10.637Z" transform="translate(-583.847 -396.627)"/><path class="u" d="M841.234,548.46s-2.73-1.294-3.591-.286-3.735,11.061-3.735,11.061-.861,6.61,2.01,6.32,7.9-10.637,7.9-10.637Z" transform="translate(-583.847 -396.627)"/><path class="v" d="M861.7,462.181l6.176,9.625s-.43,2.155-4.165,1.725l-12.785,8.045s-1.111,9.794,2.441,8.906c.575-.145,4.585-4.31,7.47-4.021l16.954-6.61s4.021-2.3,1.866-9.911-9.28-25.26-9.28-25.26l-11.262,6.3Z" transform="translate(-594.836 -329.885)"/><path class="u" d="M861.7,462.181l6.176,9.625s-.43,2.155-4.165,1.725l-12.785,8.045s-1.111,9.794,2.441,8.906c.575-.145,4.585-4.31,7.47-4.021l16.954-6.61s4.021-2.3,1.866-9.911-9.28-25.26-9.28-25.26l-11.262,6.3Z" transform="translate(-594.836 -329.885)"/><path class="v" d="M825.147,457.384c.861,5.46-4.021,5.89-4.021,5.89s-21.98.43-24.566-.145-6.035,1.005-6.035,1.005c-4.455-2.73-.861-9.481-.861-9.481s9.195-.286,11.35-.705,13.071-1.016,13.071-1.016-.861-5.315-6.61-18.816c-3.9-9.17-1.058-14.566,1.189-17.081a9.456,9.456,0,0,1,1.972-1.735l17.67.861a22.935,22.935,0,0,0,.1,2.67,28.438,28.438,0,0,0,2.345,8.818c-1.005,0-7.47,6.035-7.47,6.035S824.283,451.928,825.147,457.384Z" transform="translate(-554.401 -310.867)"/><path class="e" d="M790.959,455.248s9.195-.286,11.35-.705,13.071-1.005,13.071-1.005-.861-5.315-6.61-18.816c-3.9-9.17-1.058-14.566,1.189-17.081a9.458,9.458,0,0,1,1.972-1.735l16.372.8v-.511l-17.67-.861a9.457,9.457,0,0,0-1.972,1.735c-2.236,2.518-5.093,7.911-1.188,17.081,5.763,13.491,6.617,18.806,6.617,18.806s-10.934.575-13.071,1.005-11.35.705-11.35.705-3.591,6.754.861,9.495c0,0,.134-.064.353-.155C787.923,460.959,790.959,455.248,790.959,455.248Z" transform="translate(-554.404 -310.886)"/><rect class="t" width="8.906" height="22.552" transform="translate(253.937 51.708)"/><rect class="e" width="8.906" height="22.552" transform="translate(253.937 51.708)"/><path class="t" d="M877.389,249.433c.307.085.653.1.861.518a3.174,3.174,0,0,1,.208,1.058l.561,6.969a3.88,3.88,0,0,0,.261,1.333c.236.473.628.529.935.832.617.614.8,2.151.628,3.4a22.37,22.37,0,0,1-.931,3.456,32.543,32.543,0,0,1-1.471,4.814c-.674,1.368-1.9,2.116-2.687.966s-.684-3.471-.832-5.372c-.247-3.174-1.485-5.911-1.57-9.107a36.515,36.515,0,0,1,1.058-7.449c.31-1.682.328-3.725.779-5.238C875.566,247.419,876.285,249.129,877.389,249.433Z" transform="translate(-609.454 -201.033)"/><path class="e" d="M877.389,249.433c.307.085.653.1.861.518a3.174,3.174,0,0,1,.208,1.058l.561,6.969a3.88,3.88,0,0,0,.261,1.333c.236.473.628.529.935.832.617.614.8,2.151.628,3.4a22.37,22.37,0,0,1-.931,3.456,32.543,32.543,0,0,1-1.471,4.814c-.674,1.368-1.9,2.116-2.687.966s-.684-3.471-.832-5.372c-.247-3.174-1.485-5.911-1.57-9.107a36.515,36.515,0,0,1,1.058-7.449c.31-1.682.328-3.725.779-5.238C875.566,247.419,876.285,249.129,877.389,249.433Z" transform="translate(-609.454 -201.033)"/><path class="w" d="M759.885,208.8l-3.446,2.874s-.409-.48-1.019-1.256c-2.395-3.058-7.9-10.729-4.01-12.1s6.966,6.109,8.052,9.2C759.737,208.3,759.885,208.8,759.885,208.8Z" transform="translate(-529.649 -170.304)"/><path class="w" d="M942.278,207.951c-1.435,2.155-3.446,0-3.446,0s-.257-.384-.621-1.005c-1.182-2-3.5-6.433-1.965-8.19,1.764-2.007,6.133,4.843,6.268,8.056A1.912,1.912,0,0,1,942.278,207.951Z" transform="translate(-649.841 -170.463)"/><path class="w" d="M854.08,287s2.875,9.195,2.01,11.921,6.179,5.9,6.179,5.9h8.045s2.874-5.89,2.155-7.615-6.9-3.016-6.9-3.016-3.59,0-3.446-9.625Z" transform="translate(-596.983 -226.245)"/><path class="e" d="M769.725,225.984l-3.446,2.874s-.409-.48-1.019-1.256c1.252-.222,3.2-2.049,4.045-2.9C769.577,225.483,769.725,225.984,769.725,225.984Z" transform="translate(-539.489 -187.491)"/><path class="e" d="M946.817,223.38c-1.436,2.155-3.446,0-3.446,0s-.257-.384-.621-1.005l.046-.145c.931.667,3.827.1,4.257,0a1.912,1.912,0,0,1-.236,1.15Z" transform="translate(-654.379 -185.892)"/><path class="e" d="M865.751,418.814c-4.444,2.028-18.884-1.584-19.751-1.8a9.46,9.46,0,0,1,1.972-1.735l17.67.861A22.906,22.906,0,0,0,865.751,418.814Z" transform="translate(-591.753 -310.854)"/><path class="x" d="M797.964,255.1s-3.446,1.15-8.331-3.3c0,0-10.934-10.775-11.639-13.36l-8.465-14.813s-3.591,3.88-5.029,3.3l9.481,16.52s1.725,3.174,3.3,4.021c0,0,11.78,15.085,11.921,18.1s5.308,11.092,5.308,11.092,1.725,13.071-1.294,15.371c0,0,16.806,4.31,20.4,1.436,0,0-1.58-16.224,0-17.956,0,0,4.885-5.745,1.58-12.066,0,0-.705-3.446,1.15-5.171s10.2-14.51,10.2-14.51,2.01-2.874,2.01-4.74c0,0,3.735-12.641,3.174-15.946,0,0-3.3.705-4.31,0,0,0-4.885,14.813-5.46,15.371s-4.585,12.21-9.911,13.5-6.176,1.866-6.176,1.866,10.341,6.465,5.315,9.336S797.964,255.1,797.964,255.1Z" transform="translate(-538.998 -186.443)"/><path class="e" d="M862.743,290.251a27.451,27.451,0,0,1-.208-4.081l-8.045,2.441a10.875,10.875,0,0,1,.5,1.651c.92.406,2.162,1.365,3.231,1.365a7.326,7.326,0,0,0,4.518-1.376Z" transform="translate(-597.248 -227.281)"/><circle class="w" cx="7.47" cy="7.47" r="7.47" transform="translate(253.362 48.978)"/><path class="e" d="M827.859,246.435c-1.643.127-3.477,1.263-3.386,2.91a11.067,11.067,0,0,0,.942,2.539c.653,2.1-.8,4.2-2.077,6s-2.469,4.165-1.376,6.063a14.964,14.964,0,0,0,1.009,1.316c1.351,1.823,1.333,4.285,1.933,6.476a11.36,11.36,0,0,0,13.346,8.112,7.1,7.1,0,0,1-1.5-4.8c.081-1.256.487-2.568,0-3.728-.628-1.492-2.469-2.081-3.418-3.386a5.412,5.412,0,0,1-.427-4.67c.458-1.555,1.252-3,1.633-4.585a13.849,13.849,0,0,1,.353-1.372c.663-1.883,2.645-2.977,4.585-3.446s3.978-.5,5.872-1.115,3.735-2.063,3.954-4.049c-1.594.638-3.072-1.026-4.61-1.792-2.532-1.256-5.421-.074-8.031.215C833.689,247.447,830.868,246.216,827.859,246.435Z" transform="translate(-575.915 -201.495)"/><path class="t" d="M827.449,245.625c-1.644.127-3.478,1.263-3.386,2.91a11.065,11.065,0,0,0,.942,2.539c.653,2.1-.8,4.2-2.077,6s-2.469,4.165-1.376,6.063a14.945,14.945,0,0,0,1.009,1.316c1.351,1.823,1.333,4.285,1.933,6.476a11.36,11.36,0,0,0,13.346,8.112,7.1,7.1,0,0,1-1.5-4.8c.081-1.256.487-2.568,0-3.728-.628-1.492-2.469-2.081-3.418-3.386a5.411,5.411,0,0,1-.427-4.67c.458-1.555,1.252-3,1.633-4.585a13.794,13.794,0,0,1,.353-1.372c.663-1.883,2.645-2.977,4.585-3.446s3.979-.5,5.872-1.115,3.735-2.063,3.954-4.049c-1.594.638-3.072-1.026-4.61-1.792-2.532-1.256-5.421-.074-8.031.215C833.286,246.633,830.475,245.388,827.449,245.625Z" transform="translate(-575.65 -200.97)"/><path class="e" d="M885.65,326.3s2.991,2.67,3.58,3.848" transform="translate(-617.418 -253.257)"/><path class="e" d="M883.17,371.51a32.169,32.169,0,0,0-5.46.43c-1.725.43-5.89,0-5.89,0" transform="translate(-608.466 -282.521)"/><g class="g" transform="translate(225.499 36.627)"><path d="M887.1,319.546a3.59,3.59,0,0,1-1.033.4,3.95,3.95,0,0,0,2.758-.4c5.03-2.874-5.315-9.336-5.315-9.336H881.78S892.125,316.675,887.1,319.546Z" transform="translate(-840.412 -279.469)"/><path d="M951.843,223.311a1.493,1.493,0,0,0-.035-.261,16.872,16.872,0,0,1-1.788.272A7.921,7.921,0,0,0,951.843,223.311Z" transform="translate(-884.584 -223.05)"/><path d="M794.942,299.123c3.016-2.3,1.294-15.371,1.294-15.371s-5.171-8.045-5.315-11.061S779,254.591,779,254.591c-1.58-.861-3.3-4.021-3.3-4.021s-9.77-15.946-11.205-16.52l9.48,16.52s1.725,3.174,3.3,4.021c0,0,11.78,15.085,11.921,18.1s5.312,11.071,5.312,11.071,1.725,13.071-1.294,15.371c0,0,10.331,2.649,16.524,2.409A86.438,86.438,0,0,1,794.942,299.123Z" transform="translate(-764.49 -230.17)"/><path d="M858.914,313.989l-.085-.109a2.276,2.276,0,0,1-.3.067C858.664,313.965,858.791,313.979,858.914,313.989Z" transform="translate(-825.362 -281.844)"/></g><g class="g" transform="translate(274.482 36.609)"><path d="M924.262,223l-.088.018c-.152,4.412-3.213,14.778-3.213,14.778,0,1.866-2.01,4.74-2.01,4.74s-8.331,12.785-10.2,14.51-1.15,5.171-1.15,5.171l.018.035a5.215,5.215,0,0,1,1.273-4.06c1.866-1.725,10.2-14.51,10.2-14.51s2.01-2.874,2.01-4.74C921.1,238.963,924.837,226.322,924.262,223Z" transform="translate(-906.02 -223)"/><path d="M903.37,353.581c.215,1.22.071-.071.145,1.15,0,0,3.527-4.137,2.564-9.251A12.577,12.577,0,0,1,903.37,353.581Z" transform="translate(-903.37 -302.281)"/></g><ellipse class="y" cx="150.839" cy="14.489" rx="150.839" ry="14.489" transform="translate(14.842 204.353)"/><path class="z" d="M425.4,595.83s-5.135-17.441.963-30.276a27.546,27.546,0,0,0,2.229-17.282,46.327,46.327,0,0,0-2.448-8.112" transform="translate(-318.189 -391.689)"/><path class="aa" d="M427.74,509.534c0,2.137-3.88,8.334-3.88,8.334s-3.88-6.2-3.88-8.334a3.88,3.88,0,1,1,7.738,0Z" transform="translate(-315.983 -369.168)"/><path class="aa" d="M445.837,539.34c-1.16,1.8-7.777,4.892-7.777,4.892s.12-7.3,1.28-9.1a3.88,3.88,0,1,1,6.5,4.208Z" transform="translate(-327.693 -387.137)"/><path class="aa" d="M442.49,594.407c-1.908.963-9.17.3-9.17.3s3.792-6.246,5.7-7.209A3.88,3.88,0,1,1,442.5,594.4Z" transform="translate(-324.624 -421.97)"/><path class="aa" d="M432.424,638.909c-1.718,1.27-9,1.845-9,1.845s2.68-6.8,4.4-8.07a3.88,3.88,0,0,1,4.585,6.222Z" transform="translate(-318.216 -451.214)"/><path class="aa" d="M412.464,553.221c1.534,1.488,8.676,3.033,8.676,3.033s-1.763-7.093-3.284-8.585a3.88,3.88,0,1,0-5.393,5.552Z" transform="translate(-310.229 -395.71)"/><path class="aa" d="M400.074,603.35c1.908.963,9.17.3,9.17.3s-3.777-6.246-5.685-7.191a3.88,3.88,0,0,0-3.485,6.909Z" transform="translate(-301.885 -427.936)"/><path class="aa" d="M395.739,654.2c1.718,1.27,9,1.845,9,1.845s-2.681-6.8-4.4-8.07a3.88,3.88,0,1,0-4.585,6.222Z" transform="translate(-299.103 -460.846)"/><path class="z" d="M720.04,596.54S714.9,579.1,721,566.264a27.546,27.546,0,0,0,2.229-17.282,46.328,46.328,0,0,0-2.448-8.112" transform="translate(-508.91 -392.148)"/><path class="aa" d="M722.379,511.285c0,2.137-3.88,8.334-3.88,8.334s-3.88-6.2-3.88-8.334a3.88,3.88,0,0,1,7.738,0Z" transform="translate(-506.71 -370.672)"/><path class="aa" d="M740.487,540.039c-1.16,1.8-7.777,4.892-7.777,4.892s.12-7.3,1.28-9.1a3.88,3.88,0,1,1,6.5,4.208Z" transform="translate(-518.42 -387.59)"/><path class="aa" d="M737.17,595.094c-1.908.963-9.17.3-9.17.3s3.792-6.246,5.7-7.209a3.88,3.88,0,1,1,3.471,6.913Z" transform="translate(-515.371 -422.41)"/><path class="aa" d="M727.064,639.609c-1.718,1.27-9,1.845-9,1.845s2.68-6.8,4.4-8.07a3.88,3.88,0,0,1,4.585,6.222Z" transform="translate(-508.937 -451.668)"/><path class="aa" d="M707.123,553.921c1.534,1.488,8.676,3.033,8.676,3.033s-1.763-7.093-3.284-8.585a3.88,3.88,0,1,0-5.393,5.552Z" transform="translate(-500.963 -396.163)"/><path class="aa" d="M694.688,604.017c1.908.963,9.17.3,9.17.3s-3.792-6.246-5.7-7.209a3.88,3.88,0,0,0-3.485,6.909Z" transform="translate(-492.58 -428.357)"/><path class="aa" d="M691.409,655.649c1.718,1.27,9,1.845,9,1.845s-2.68-6.8-4.4-8.07a3.88,3.88,0,0,0-4.585,6.222Z" transform="translate(-490.85 -462.05)"/><path class="ab" d="M753.366,128.857h-2.215a1.552,1.552,0,1,0,0-3.1H733.191a1.552,1.552,0,0,0,0,3.1h2.215a1.552,1.552,0,0,0,0,3.1h-3.1a1.552,1.552,0,1,0,0,3.1h17.945a1.552,1.552,0,1,0,0-3.1h3.114a1.552,1.552,0,0,0,0-3.1Z" transform="translate(-517.106 -123.444)"/><path class="ab" d="M469.1,155.856h-1.686a1.182,1.182,0,1,0,0-2.36H453.757a1.182,1.182,0,0,0,0,2.36h1.686a1.182,1.182,0,1,0,0,2.36h-2.36a1.182,1.182,0,1,0,0,2.36H466.74a1.182,1.182,0,1,0,0-2.36h2.36a1.182,1.182,0,0,0,0-2.36Z" transform="translate(-336.611 -141.4)"/><path class="ab" d="M261.6,188.187h-2.215a1.552,1.552,0,1,0,0-3.1H241.443a1.552,1.552,0,0,0,0,3.1h2.215a1.552,1.552,0,0,0,0,3.1h-3.1a1.552,1.552,0,0,0,0,3.1H258.5a1.552,1.552,0,1,0,0-3.1h3.1a1.552,1.552,0,0,0,0-3.1Z" transform="translate(-198.893 -161.848)"/></g></svg>