<svg xmlns="http://www.w3.org/2000/svg" width="36" height="27.891" viewBox="0 0 36 27.891">
    <g transform="translate(-20 -20)">
        <path fill="#2d4a8b"
            d="M7.392,16.187l1.435-1.181-1.851.585-.189-.27.765-.743-1,.4A10.217,10.217,0,0,0,3.2,31.945a10.145,10.145,0,0,1-1.327-5.032,10.472,10.472,0,0,1,6.472-9.63l.472-1.149-1.125.5L7.375,16.2l.016-.017Z"
            transform="translate(20 15.945)" />
        <path fill="#259164"
            d="M8.346,4.055l5.175,5.6-3.651,7.2,7.71-1.382,3.51,8.469L36,4.389Zm5.592,9.177L16.335,9l14.1-3.3L13.938,13.231Z"
            transform="translate(20 15.945)" />
    </g>
</svg>