<svg xmlns="http://www.w3.org/2000/svg" width="13" height="13" viewBox="0 0 13 13">
    <defs>
        <style>.a{fill:#0cc142;}</style>
    </defs>
    <path class="a"
        d="M8.868,2.25A6.357,6.357,0,0,0,2.486,8.583a6.267,6.267,0,0,0,.916,3.27L2.25,15.25l3.533-1.122A6.393,6.393,0,0,0,15.25,8.583,6.357,6.357,0,0,0,8.868,2.25Zm3.173,8.738a1.648,1.648,0,0,1-1.129.728c-.3.016-.308.232-1.94-.477A6.659,6.659,0,0,1,6.282,8.694,3.13,3.13,0,0,1,5.68,7,1.808,1.808,0,0,1,6.3,5.671a.625.625,0,0,1,.442-.186c.128,0,.212,0,.307,0s.238-.02.361.309.419,1.136.457,1.218a.3.3,0,0,1,0,.284,1.108,1.108,0,0,1-.173.264c-.085.091-.179.2-.255.274s-.173.162-.084.327a4.884,4.884,0,0,0,.864,1.153,4.453,4.453,0,0,0,1.28.851c.16.087.256.077.355-.027s.425-.457.54-.614.222-.127.37-.068.933.48,1.093.567.267.131.3.2A1.34,1.34,0,0,1,12.041,10.988Z"
        transform="translate(-2.25 -2.25)" />
</svg>