<svg xmlns="http://www.w3.org/2000/svg" width="1024" height="1024" viewBox="0 0 1024 1024"><defs><style>.a{fill:#fff;}.b{fill:#2d4a8b;}.c{fill:#259164;}</style></defs><g transform="translate(-112 -330)"><rect class="a" width="1024" height="1024" rx="10" transform="translate(112 330)"/><g transform="translate(287.158 592.737)"><path class="b" d="M139.663,44.96l27.122-22.3L131.813,33.708l-3.571-5.1L142.7,14.579l-18.96,7.652C51.382,50.288,0,120.459,0,202.506a192.512,192.512,0,0,0,60.451,140.2,191.671,191.671,0,0,1-25.082-95.083c0-81.2,51.268-153.465,122.29-181.947l8.927-21.709-21.256,9.381-5.98-8.077.312-.312Z" transform="translate(0 162.556)"/><path class="c" d="M8.346,4.055l97.775,105.824L37.14,245.857l145.671-26.1,66.317,160.012L530.835,10.374ZM114,177.443l45.288-79.949L425.634,35.116Z" transform="translate(142.849 -4.055)"/></g></g></svg>