<svg xmlns="http://www.w3.org/2000/svg" width="64.949" height="48.712" viewBox="0 0 64.949 48.712">
    <path fill="#2d4a8b"
        d="M13.336,17.48l2.59-2.13-3.339,1.055-.341-.487,1.38-1.34-1.81.731a18.433,18.433,0,0,0-6.043,30.6,18.3,18.3,0,0,1-2.395-9.079A18.893,18.893,0,0,1,15.055,19.458l.852-2.073-2.03.9-.571-.771.03-.03Z"
        transform="translate(0 2.801)" />
    <path fill="#259164"
        d="M8.346,4.055l9.336,10.1L11.1,27.144l13.91-2.492,6.332,15.279,26.9-35.273ZM18.435,20.611l4.325-7.634L48.192,7.02,18.435,20.611Z"
        transform="translate(6.711 -4.055)" />
</svg>